<svg version="1.0" xmlns="http://www.w3.org/2000/svg"
 width="608.000000pt" height="608.000000pt" viewBox="0 0 608.000000 608.000000"
 preserveAspectRatio="xMidYMid meet">

<g transform="translate(0.000000,608.000000) scale(0.100000,-0.100000)"
fill="#000000" stroke="none">
<path d="M2747 5769 c-835 -60 -1655 -532 -2139 -1234 -242 -351 -400 -774
-444 -1192 -23 -212 -15 -619 15 -793 90 -521 305 -966 668 -1381 229 -263
500 -472 827 -640 281 -144 555 -232 876 -282 167 -26 597 -31 745 -8 475 71
854 211 1215 449 175 115 268 189 414 331 446 435 732 990 822 1595 21 142 29
494 15 638 -23 235 -105 616 -131 606 -4 -2 -75 -69 -159 -149 l-151 -147 20
-103 c62 -323 52 -690 -26 -1009 -20 -80 -52 -188 -71 -240 -49 -133 -181
-399 -249 -500 -201 -301 -486 -575 -789 -757 -715 -430 -1566 -468 -2310
-102 -403 198 -721 475 -965 841 -280 419 -415 888 -397 1373 14 352 90 660
238 961 175 359 442 670 779 911 424 303 998 481 1485 460 359 -16 800 -145
1078 -316 37 -22 71 -42 75 -43 4 -1 69 61 145 139 l138 141 -83 50 c-142 85
-367 192 -523 249 -366 133 -718 181 -1118 152z"/>
<path d="M5189 5417 c-36 -12 -91 -38 -123 -57 -42 -26 -323 -303 -1054 -1040
-548 -553 -1097 -1106 -1220 -1229 l-223 -224 -116 114 c-64 63 -241 238 -392
390 -293 293 -356 344 -469 379 -223 69 -482 -42 -594 -256 -90 -172 -91 -351
-2 -528 33 -65 82 -117 618 -649 582 -579 674 -666 753 -706 98 -49 236 -63
352 -36 149 35 61 -47 1637 1529 l1452 1451 42 87 c40 81 43 95 48 188 9 192
-38 321 -167 450 -115 116 -221 160 -386 160 -67 0 -107 -6 -156 -23z"/>
</g>
</svg>
