<svg version="1.0" xmlns="http://www.w3.org/2000/svg"
 width="886.000000pt" height="886.000000pt" viewBox="0 0 886.000000 886.000000"
 preserveAspectRatio="xMidYMid meet">

<g transform="translate(0.000000,886.000000) scale(0.100000,-0.100000)"
fill="#000000" stroke="none">
<path d="M3937 8449 c-118 -13 -223 -38 -421 -99 -239 -73 -288 -86 -406 -100
-210 -27 -424 31 -577 157 l-45 37 6 -54 c12 -92 34 -167 71 -243 44 -91 129
-203 183 -242 22 -16 41 -33 41 -36 2 -13 -191 -31 -259 -25 -164 16 -326 99
-405 205 -17 22 -33 41 -37 41 -15 0 -20 -119 -9 -213 31 -255 133 -466 319
-659 l84 -87 -19 -78 c-26 -113 -24 -323 5 -466 30 -149 30 -150 -21 -181 -60
-35 -152 -136 -187 -207 -115 -226 -64 -521 122 -711 84 -86 173 -136 292
-164 l75 -17 16 -71 c9 -39 42 -192 73 -341 l56 -270 3 -360 3 -360 -127 -49
c-157 -60 -874 -341 -1233 -483 -418 -165 -551 -243 -728 -428 -290 -301 -478
-741 -521 -1225 -6 -63 -11 -141 -11 -172 l0 -58 -54 0 c-48 0 -57 -3 -80 -31
-35 -41 -33 -73 5 -111 l31 -31 381 6 c210 4 564 7 787 7 l405 0 27 73 c52
139 188 313 313 402 79 56 186 109 277 137 73 22 78 22 845 26 l772 3 87 142
c49 78 129 205 180 283 84 129 129 204 122 204 -2 0 -35 -9 -73 -20 -232 -67
-543 -41 -788 65 -314 136 -627 473 -751 807 -45 120 -47 112 40 153 87 40 94
41 94 19 0 -8 14 -29 30 -46 27 -26 36 -30 70 -25 53 7 94 38 119 90 20 41 21
59 21 376 l0 333 185 -178 c202 -195 281 -252 394 -288 208 -66 408 -52 600
42 77 38 272 202 414 351 38 39 71 71 74 71 3 0 3 -141 -1 -313 -5 -218 -4
-326 3 -354 16 -57 86 -132 193 -203 49 -33 94 -60 99 -60 19 0 7 -22 -84
-162 -52 -79 -131 -201 -177 -273 -46 -71 -111 -173 -145 -225 -34 -52 -107
-167 -162 -255 -123 -196 -271 -429 -307 -481 -14 -21 -26 -42 -26 -46 0 -5
224 -8 498 -8 l497 0 149 253 c82 138 226 383 321 542 94 160 219 371 277 470
58 99 208 353 333 565 204 343 381 646 451 767 29 50 49 63 99 63 29 0 45 -8
71 -34 61 -61 79 -19 -296 -691 -65 -115 -177 -318 -250 -450 -334 -604 -443
-801 -527 -955 -50 -91 -134 -244 -187 -341 -53 -96 -96 -178 -96 -182 0 -4
63 -6 141 -5 l141 3 70 125 c39 69 203 364 365 655 162 292 395 708 518 925
123 217 279 496 348 620 143 257 171 299 212 319 19 9 80 18 160 22 299 16
528 90 737 239 94 67 210 182 282 279 62 85 148 259 184 371 55 172 67 256 66
460 0 167 -3 196 -27 295 -15 61 -37 139 -49 175 -26 80 -107 254 -140 304
l-25 36 -60 -98 c-33 -53 -106 -176 -163 -272 -57 -96 -177 -301 -268 -455
-91 -154 -174 -291 -185 -305 -15 -20 -45 -32 -140 -57 -67 -18 -129 -33 -138
-33 -16 0 -369 193 -506 277 -68 42 -73 46 -88 99 -28 97 -55 208 -55 230 0
11 23 59 51 105 304 500 639 1064 639 1075 0 12 -302 -4 -390 -21 -198 -39
-409 -129 -555 -237 -152 -113 -321 -308 -402 -464 -190 -364 -190 -866 -1
-1266 l50 -107 -23 -38 c-13 -21 -133 -211 -268 -423 -398 -626 -451 -711
-511 -805 -31 -49 -78 -123 -103 -163 l-47 -72 -33 13 c-17 8 -87 38 -155 68
l-122 54 3 350 c3 350 3 350 34 500 18 83 48 233 68 335 20 102 38 192 40 201
3 10 32 22 79 33 227 53 389 211 462 451 27 88 25 247 -4 340 -37 123 -129
239 -235 299 -34 18 -38 25 -33 51 2 17 19 111 37 210 43 246 50 445 20 566
-40 160 -120 283 -245 375 -56 41 -66 54 -76 93 -45 179 -170 365 -333 496
-95 77 -282 173 -398 204 -163 45 -364 60 -532 40z m453 -470 c117 -21 261
-78 320 -127 23 -20 21 -19 -35 3 -99 40 -158 48 -310 42 -157 -6 -263 -29
-425 -92 -331 -129 -477 -160 -646 -136 -79 11 -237 62 -248 79 -2 4 39 8 93
9 157 2 269 29 611 148 255 88 441 109 640 74z m120 -408 c-8 -5 -31 -12 -50
-16 -71 -15 -219 -78 -340 -145 -438 -240 -680 -303 -990 -255 -147 22 -274
74 -425 174 -72 47 -218 180 -237 215 -10 18 -8 18 20 -3 37 -26 184 -83 283
-111 187 -50 467 -65 694 -35 103 14 302 60 539 125 137 38 275 58 401 59 71
0 114 -3 105 -8z m398 -391 c17 -11 32 -25 33 -32 1 -7 0 -80 0 -163 -2 -122
2 -164 18 -228 27 -105 73 -188 147 -267 l62 -65 -28 -145 c-16 -80 -50 -242
-75 -360 -26 -118 -71 -334 -100 -480 l-53 -265 -64 -58 c-35 -32 -89 -81
-120 -108 l-58 -51 0 34 c-1 84 -90 197 -193 244 -59 28 -70 29 -225 32 l-162
3 58 39 c91 61 125 146 87 219 -28 55 -115 64 -131 14 -27 -88 -71 -119 -152
-110 -52 6 -87 35 -113 94 -21 50 -52 62 -97 39 -64 -33 -68 -132 -6 -204 19
-22 51 -51 72 -64 l37 -23 -155 -6 c-175 -6 -229 -21 -303 -82 -51 -42 -96
-121 -105 -184 l-7 -46 -112 101 -111 102 -20 87 c-11 49 -39 178 -62 288 -23
110 -74 354 -114 543 l-73 342 67 68 c96 98 138 196 155 364 l6 58 37 -16
c141 -61 324 -88 552 -81 325 9 593 83 860 237 41 23 102 58 134 77 126 72
248 93 314 53z m2154 -182 c-10 -18 -56 -89 -100 -158 -85 -130 -391 -627
-412 -669 -21 -42 -7 -268 24 -380 63 -227 226 -454 396 -554 257 -149 559
-166 867 -47 44 17 87 38 95 48 17 20 128 207 495 839 53 91 73 116 73 91 1
-7 5 -60 10 -118 29 -319 -83 -633 -305 -855 -96 -96 -170 -146 -290 -198
-168 -73 -213 -81 -450 -81 -184 0 -220 3 -287 21 -358 100 -620 349 -738 701
-47 142 -63 262 -57 436 3 118 10 172 30 248 72 272 291 532 566 670 95 48
110 49 83 6z m-1620 -837 c54 -63 71 -126 66 -235 -6 -115 -34 -182 -110 -262
-47 -49 -123 -102 -134 -92 -6 7 129 628 137 628 4 0 23 -18 41 -39z m-2811
-287 c37 -164 65 -300 64 -302 -9 -10 -94 46 -137 89 -108 108 -145 286 -87
419 22 49 67 102 83 97 6 -2 40 -138 77 -303z m1777 -1036 c-6 -136 -13 -160
-54 -201 -45 -45 -83 -60 -154 -61 l-65 -1 -5 100 -5 100 -144 3 c-80 1 -149
-2 -154 -7 -5 -5 -12 -49 -14 -98 -3 -48 -11 -91 -17 -95 -34 -23 -150 4 -195
45 -47 44 -61 92 -61 220 l0 117 436 0 437 0 -5 -122z m2047 2 c35 -39 17 -81
-135 -315 -79 -121 -200 -308 -270 -415 -70 -107 -209 -321 -310 -475 -161
-246 -329 -504 -606 -933 -43 -67 -151 -234 -240 -370 l-161 -247 -81 -3 c-45
-2 -82 0 -82 3 0 5 229 363 502 785 30 47 100 155 155 240 55 85 191 295 303
465 351 535 709 1087 763 1175 21 36 48 75 60 88 26 28 77 29 102 2z m-3941
-1437 c123 -375 459 -770 806 -947 160 -82 258 -113 547 -172 21 -4 19 -9 -33
-93 l-54 -89 -70 14 c-389 74 -722 264 -986 562 -94 107 -226 296 -279 403
-46 90 -112 257 -116 292 -4 27 0 30 66 57 39 15 77 28 85 29 10 1 22 -19 34
-56z m-1250 -567 c31 -35 56 -68 56 -73 0 -5 -29 -33 -64 -62 -89 -72 -212
-204 -267 -287 -138 -206 -227 -479 -245 -753 l-7 -104 -94 6 c-52 3 -97 8
-101 11 -9 10 16 253 37 353 61 290 198 567 382 767 58 63 225 206 240 206 4
0 32 -29 63 -64z"/>
<path d="M3104 6416 c-37 -37 -42 -62 -20 -105 25 -48 45 -51 352 -51 l286 0
29 29 c41 42 40 92 -2 132 l-31 29 -290 0 -290 0 -34 -34z"/>
<path d="M4209 6435 c-59 -32 -62 -121 -6 -156 30 -18 54 -19 324 -19 l291 0
31 26 c43 36 44 93 2 135 l-29 29 -294 0 c-234 -1 -298 -4 -319 -15z"/>
<path d="M3339 6161 c-48 -49 -34 -142 26 -169 58 -27 111 -8 141 50 52 101
-86 200 -167 119z"/>
<path d="M4472 6165 c-76 -64 -32 -185 68 -185 94 0 143 116 75 180 -14 13
-41 24 -67 27 -37 4 -49 1 -76 -22z"/>
<path d="M6785 3320 c-14 -22 -90 -156 -169 -298 -78 -141 -185 -331 -236
-422 -257 -455 -370 -663 -365 -668 3 -3 38 -20 79 -37 136 -60 278 -173 361
-289 41 -58 126 -221 137 -262 5 -18 28 -19 727 -19 l723 0 25 29 c19 23 24
36 19 60 -10 50 -48 76 -110 76 l-53 0 -6 153 c-8 182 -26 297 -72 474 -130
495 -376 859 -731 1080 -70 44 -289 163 -300 163 -2 0 -15 -18 -29 -40z m329
-476 c212 -180 358 -406 454 -704 58 -179 92 -371 92 -519 l0 -50 -42 -6 c-24
-3 -68 -4 -98 -1 l-55 4 -7 103 c-13 197 -49 357 -117 523 -82 201 -179 337
-357 503 -57 54 -104 105 -104 113 0 9 23 42 51 73 l51 57 30 -17 c17 -10 62
-45 102 -79z"/>
<path d="M2422 1721 c-112 -32 -191 -80 -277 -166 -93 -93 -145 -176 -183
-295 -24 -75 -27 -100 -27 -220 1 -125 3 -142 31 -222 83 -233 259 -402 480
-458 75 -20 118 -20 1710 -20 1840 0 1719 -5 1884 76 255 126 410 424 370 712
-24 180 -79 291 -205 417 -59 59 -101 92 -161 123 -150 77 -14 72 -1884 71
-1581 0 -1679 -1 -1738 -18z m856 -418 c5 -16 51 -140 102 -278 51 -137 95
-260 97 -272 5 -22 2 -23 -55 -23 -67 0 -71 3 -97 73 l-18 48 -115 -3 -116 -3
-20 -57 -21 -58 -69 0 c-61 0 -67 2 -61 18 5 9 43 107 85 217 43 110 93 237
111 283 l34 82 67 0 c63 0 66 -1 76 -27z m587 -5 c60 -31 104 -77 136 -138 19
-37 23 -61 23 -130 0 -103 -24 -160 -91 -219 -62 -55 -117 -72 -255 -78 l-118
-6 0 303 0 302 128 -4 c112 -4 133 -7 177 -30z m450 -88 l78 -120 23 31 c13
18 49 72 81 121 l57 88 58 0 58 0 0 -300 0 -301 -62 3 -63 3 -3 169 -2 169
-70 -106 c-38 -59 -71 -107 -73 -107 -6 0 -107 145 -129 184 -17 30 -17 27
-18 -141 l0 -173 -65 0 -65 0 0 300 0 300 59 0 59 0 77 -120z m603 -183 l2
-298 -62 3 -63 3 -3 285 c-1 157 0 291 3 298 3 9 22 12 62 10 l58 -3 3 -298z
m356 137 c60 -91 113 -167 118 -170 4 -3 8 72 8 165 l0 171 65 0 65 0 0 -300
0 -300 -57 0 -58 0 -115 170 c-63 93 -118 170 -122 170 -5 0 -8 -76 -8 -170
l0 -170 -65 0 -65 0 0 293 c0 162 3 297 7 300 3 4 31 7 62 7 l56 -1 109 -165z"/>
<path d="M3158 1064 l-37 -104 74 0 c41 0 75 1 75 3 0 3 -71 202 -73 204 -1 1
-19 -45 -39 -103z"/>
<path d="M3690 1030 l0 -173 57 6 c125 13 188 126 134 242 -30 65 -62 88 -131
93 l-60 4 0 -172z"/>
</g>
</svg>
