<?xml version="1.0" encoding="UTF-8" standalone="no"?>
<svg
   xmlns:dc="http://purl.org/dc/elements/1.1/"
   xmlns:cc="http://creativecommons.org/ns#"
   xmlns:rdf="http://www.w3.org/1999/02/22-rdf-syntax-ns#"
   xmlns:svg="http://www.w3.org/2000/svg"
   xmlns="http://www.w3.org/2000/svg"
   height="1600"
   width="2200"
   id="svg11799"
   y="0px"
   x="0px"
   viewBox="0 0 2200 1600"
   style="clip-rule:evenodd;fill-rule:evenodd;image-rendering:optimizeQuality;shape-rendering:geometricPrecision;text-rendering:geometricPrecision"
   version="1.1"
   xml:space="preserve"><metadata
     id="metadata11803"><rdf:RDF><cc:Work
         rdf:about=""><dc:format>image/svg+xml</dc:format><dc:type
           rdf:resource="http://purl.org/dc/dcmitype/StillImage" /><dc:title></dc:title></cc:Work></rdf:RDF></metadata><defs
     id="defs11789"><style
       id="style11787"
       type="text/css">
   
    .fil0 {fill:black;fill-rule:nonzero}
   
  </style></defs><g
     transform="translate(-151.62282,-464.91812)"
     id="g11793"><path
       id="path11791"
       d="m 2135.5781,536.05859 c -376.2571,2.23895 -752.5462,-1.60101 -1128.7869,2.18561 -58.53004,6.66066 -105.63637,60.89009 -108.38488,119.0119 -1.11437,23.85641 2.05745,47.64939 0.76529,71.43136 -0.18835,60.72049 -4.21426,122.07537 5.83425,182.25004 17.31546,56.1911 77.88527,93.8991 135.88474,87.58675 372.4639,-2.14266 744.9682,2.48285 1117.4075,-2.53961 54.8392,-6.61773 99.1261,-55.71551 105.491,-109.72186 3.0079,-24.55252 -1.283,-49.15528 0.1248,-73.74906 0.2492,-62.88381 4.1568,-126.35938 -5.6436,-188.74048 -16.186,-51.61302 -68.8686,-88.51157 -122.6922,-87.71465 z m -1631.90818,0.15235 c -102.33666,0.29949 -199.51012,76.95371 -222.24609,176.97265 -21.8204,90.42589 16.23992,193.12868 94.23283,244.78301 79.41662,54.7253 193.72168,54.0047 270.90584,-4.63066 74.6698,-53.73241 111.45561,-155.34248 86.5332,-244.19336 -20.19649,-79.2747 -85.6189,-145.61921 -165.35742,-165.03906 -20.86473,-5.5357 -42.48814,-8.14699 -64.06836,-7.89258 z m 3.90235,81.72461 c 72.01047,-1.39985 140.82209,56.94381 149.88085,128.38476 9.67076,66.67732 -31.62358,138.60347 -96.0999,160.91059 -59.95889,21.9861 -133.75565,3.1812 -172.88447,-48.03168 -39.82588,-51.2883 -42.14615,-129.38764 -1.63008,-181.09458 28.39076,-36.85398 74.03669,-60.16705 120.7336,-60.16909 z m 517.46483,0.49804 c 373.447,0.65121 746.8952,-0.30278 1120.3418,0.6875 26.5224,4.73779 43.6506,34.78333 37.2227,60.33594 -2.0835,69.4817 3.4318,139.25022 -3.2227,208.48242 -8.8545,21.9759 -35.3241,33.40754 -57.9277,28.08008 -368.444,-0.14246 -736.8902,0.91208 -1105.3321,-0.7793 -24.82827,-4.88664 -41.22713,-32.85213 -35.23238,-57.06054 2.09812,-71.67667 -5.47023,-143.91831 4.47656,-215.07617 7.53739,-14.46964 23.34412,-24.7391 39.67382,-24.66993 z M 505.36328,1038.7949 c -101.81396,-0.528 -199.15336,74.6688 -223.02344,173.8789 -24.3625,93.1073 16.34795,200.163 98.42188,251.2754 79.79548,51.7803 192.23058,49.21 267.84703,-9.4654 71.08918,-52.8381 107.53696,-149.2178 86.20766,-235.6127 -17.85645,-81.0002 -82.71693,-150.2442 -163.3267,-171.1005 -21.47276,-6.084 -43.80794,-9.1266 -66.12643,-8.9757 z m 1640.50972,0.07 c -381.2888,1.0057 -762.5816,-0.3387 -1143.8691,0.9004 -59.86847,6.1553 -108.90553,65.1568 -103.19921,125.2207 1.91926,82.9027 -4.22878,166.1327 4.05273,248.7949 12.97502,53.7744 68.87968,91.9234 123.52528,87.4374 99.048,-1.5665 198.1114,-0.1141 297.1661,-0.5883 280.342,0.1372 560.6911,0.6981 841.0274,-1.0463 60.4305,-7.8896 107.4306,-69.6461 99.6933,-129.9531 -1.6751,-81.551 4.3846,-163.3973 -4.1308,-244.7129 -13.3282,-49.7361 -62.8259,-86.9028 -114.2657,-86.0528 z m -1636.35933,81.6836 c 74.52898,-0.3568 145.06448,62.9036 148.95899,138.1035 4.26693,60.6405 -31.72818,123.437 -88.26954,147.7032 -58.99741,25.9396 -134.88283,10.6204 -177.20898,-39.0274 -42.55978,-49.5957 -48.20651,-128.5241 -9.41199,-182.1224 28.41235,-40.1451 76.81104,-65.2502 125.93152,-64.6569 z m 505.94333,0.586 c 379.6066,0.5453 759.2154,-0.6808 1138.8203,0.914 21.087,4.5675 33.6221,28.8757 28.2325,48.959 -1.9161,75.4829 3.5049,151.2833 -3.0743,226.4863 -8.4007,18.1757 -31.1292,25.8251 -49.5683,21.5371 -373.825,-1.3122 -747.6579,1.2863 -1121.4785,-1.5488 -20.48651,-3.8068 -31.84883,-27.1883 -28.38675,-46.1855 3.89411,-76.016 -4.25278,-152.5741 4.10352,-228.2735 4.09249,-13.0949 18.06813,-21.5223 31.35153,-21.8886 z m 1130.2032,420.3418 c -382.0232,1.4016 -764.0563,-1.1544 -1146.07426,1.5332 -59.94539,6.9036 -107.31605,67.2416 -100.85938,127.0371 2.24596,82.3754 -4.49769,165.1261 4.375,247.2304 13.36338,53.6036 69.40148,91.1292 123.89444,86.5855 117.7928,-1.7589 235.6008,-0.1248 353.4005,-0.5903 261.3733,0.1703 522.7531,0.48 784.1211,-1.0772 60.4758,-7.8532 107.5557,-69.6889 99.6914,-130.0391 -1.642,-81.7396 4.6463,-163.8021 -4.2774,-245.2832 -13.5406,-49.5111 -62.9991,-86.3502 -114.2714,-85.3964 z m -1639.84184,0.021 c -101.69907,-0.9288 -199.07973,73.9705 -223.25586,172.9375 -24.87871,93.5644 16.10519,201.45 98.90877,252.5253 78.39339,50.3619 187.68441,48.8393 263.02222,-6.8341 75.72155,-53.5548 113.8629,-155.9185 88.66667,-245.6306 -21.12792,-83.7726 -93.16173,-152.7014 -178.41993,-168.2637 -16.07832,-3.304 -32.50659,-4.9202 -48.92187,-4.7344 z m 1.44141,81.6504 c 72.03941,-1.3835 140.63691,56.1541 150.19726,127.8516 9.44809,66.7524 -31.05603,139.078 -95.89323,161.2084 -59.29494,21.7004 -132.42842,4.3655 -171.58914,-46.2383 -34.7213,-43.3686 -43.28401,-107.592 -18.502,-157.6928 24.64664,-50.8373 79.42446,-85.3373 135.78711,-85.1289 z m 511.34183,0.2871 c 116.1936,0.8505 232.3936,0.2324 348.5898,0.414 262.3764,-0.071 524.7541,-0.3287 787.1289,0.7872 21.0736,4.5504 33.4924,28.7894 28.1512,49.0056 -2.1839,75.9283 4.3127,152.3346 -3.7371,227.8655 -9.1808,17.7545 -31.4763,23.8497 -49.9297,20.2131 -373.0828,-1.5526 -746.1866,1.1937 -1119.2578,-1.6193 -20.85354,-2.8379 -32.93286,-26.2236 -29.63284,-45.7266 2.54335,-39.1156 0.40687,-78.3542 0.38653,-117.5153 -0.21555,-38.2097 -0.55056,-76.6522 4.72089,-114.471 6.20009,-12.2362 20.20912,-19.036 33.58012,-18.9532 z"
       style="fill-rule:nonzero;stroke-width:0.2;stroke-miterlimit:4;stroke-dasharray:none" /></g></svg>