<?xml version="1.0" encoding="UTF-8" standalone="no"?>
<svg xmlns:dc="http://purl.org/dc/elements/1.1/" xmlns:cc="http://creativecommons.org/ns#" xmlns:rdf="http://www.w3.org/1999/02/22-rdf-syntax-ns#" xmlns:svg="http://www.w3.org/2000/svg" xmlns="http://www.w3.org/2000/svg" viewBox="0 0 871.82802 820.81609" x="0px" y="0px" version="1.1" id="svg8791">
    <metadata id="metadata8797">
        <rdf:RDF>
            <cc:Work rdf:about="">
                <dc:format>
                    image/svg+xml
                </dc:format>
                <dc:type rdf:resource="http://purl.org/dc/dcmitype/StillImage"/>
                <dc:title/>
            </cc:Work>
        </rdf:RDF>
    </metadata>
    <defs id="defs8795"/>
    <g id="g8785" transform="translate(403.91384,378.26665)">
        <path id="path8765" d="m 344.14258,-186.02734 c -10.82404,-0.34419 -17.97289,10.11389 -19.5869,19.77901 -6.36817,18.77093 -12.73634,37.54186 -19.10451,56.31278 -25.22625,0.44195 -50.57199,-0.94254 -75.72656,0.71289 -12.45601,2.95849 -17.52674,21.656349 -6.93349,29.602062 19.09223,14.246914 39.07012,27.317268 58.46474,41.093254 -7.33281,22.928773 -16.35149,45.4811462 -22.59375,68.757813 -1.1128,14.257834 18.1505,23.932475 29.02793,14.710112 19.01455,-13.012476 37.81668,-26.328235 56.75137,-39.4581591 20.68982,13.8385741 40.44888,29.3893481 61.83593,42.1660161 12.45457,4.745918 27.85908,-8.417981 23.17537,-21.484938 -7.08546,-21.6324288 -14.58365,-43.139271 -21.82771,-64.706469 20.10047,-14.577375 41.42289,-27.642794 60.72266,-43.222656 8.73572,-10.208067 0.1659,-28.721875 -13.51073,-27.860885 -23.79778,-0.93023 -47.62171,0.0789 -71.43068,-0.3188 -8.16989,-22.72047 -14.63597,-46.15921 -23.92969,-68.41407 -3.42418,-4.88786 -9.38741,-7.79821 -15.33398,-7.66796 z m 8.78906,99.191402 c 3.34484,10.970342 16.43149,13.614411 26.41992,12.123047 6.03125,0 12.0625,0 18.09375,0 -9.10744,6.792755 -20.10766,11.826695 -27.2832,20.841797 -5.83452,10.085329 1.89617,21.103837 4.20508,30.978516 0.50024,2.419629 3.56665,7.515667 2.39062,7.6875 -9.76718,-6.134852 -18.30578,-15.258855 -29.62109,-18.453125 -12.3805,-1.638154 -20.76169,9.733838 -30.66992,14.951172 -2.52882,1.820717 -6.85468,6.315808 -4.00391,0.527343 2.90894,-9.824203 8.68934,-19.5072 8.13867,-30.001953 -2.10716,-11.540506 -14.9114,-15.395385 -22.66992,-22.3125 -1.49821,-1.510844 -8.12414,-4.140989 -5.29492,-4.335937 11.30543,-0.499908 23.23248,1.925202 34.16992,-1.69336 10.60913,-5.276589 11.00289,-18.696554 15.38477,-28.289062 1.3454,-6.62666 2.72181,-8.85886 4.39267,-0.75884 2.11585,6.245132 4.23171,12.490267 6.34756,18.735402 z" style="stroke-width:1"/>
        <path id="path8767" d="m -280.73438,-186.02734 c -10.82403,-0.34425 -17.97336,10.11352 -19.58692,19.779 -6.36881,18.77093 -12.73762,37.54186 -19.10643,56.31279 -25.22492,0.44248 -50.56956,-0.94326 -75.72266,0.71289 -12.45926,2.95567 -17.52823,21.657205 -6.93545,29.604016 19.09386,14.246477 39.07249,27.315417 58.4667,41.093253 -7.34024,22.924943 -16.3487,45.4781452 -22.5957,68.751953 -1.11779,14.257622 18.14566,23.93683 29.02422,14.716265 19.01568,-13.012829 37.82004,-26.329922 56.75507,-39.4604051 20.69645,13.8501061 40.46002,29.3909831 61.83789,42.1699221 12.45597,4.735375 27.85692,-8.420356 23.17166,-21.48891 -7.08167,-21.633685 -14.58228,-43.139738 -21.82791,-64.706403 20.10835,-14.597823 41.47867,-27.642678 60.75782,-43.27539 8.88376,-10.501967 -0.4227,-29.262561 -14.34446,-27.885191 -23.53749,-0.65886 -47.08475,-0.0241 -70.62625,-0.23004 -8.17303,-22.72694 -14.63786,-46.17407 -23.93945,-68.4336 -3.42472,-4.88454 -9.3846,-7.78969 -15.32813,-7.66015 z m 8.78907,99.191402 c 3.34485,10.970317 16.43148,13.614501 26.41992,12.123047 6.03906,0 12.07812,0 18.11719,0 -8.96718,6.712866 -20.08945,11.832887 -27.25,20.841797 -5.83911,10.085152 1.89942,21.101225 4.20312,30.978516 0.48588,2.396594 3.70974,7.697556 2.39258,7.685547 -9.77016,-6.143243 -18.31103,-15.283373 -29.64258,-18.457031 -12.36756,-1.60717 -20.73319,9.743619 -30.63476,14.957031 -2.52882,1.820717 -6.85468,6.315808 -4.00391,0.527343 2.90912,-9.824809 8.69,-19.508403 8.13867,-30.003906 -2.11304,-11.546526 -14.91541,-15.392839 -22.6914,-22.294922 -1.50866,-1.519391 -8.20236,-4.161682 -5.3379,-4.351562 11.30292,-0.50139 23.2307,1.9278 34.16407,-1.695313 10.60797,-5.276134 11.00199,-18.699353 15.38281,-28.287109 1.34481,-6.62612 2.72427,-8.86237 4.39447,-0.76074 2.11591,6.245765 4.23181,12.491534 6.34772,18.737302 z" style="stroke-width:1"/>
        <path id="path8769" d="M 31.707031,59.0625 C 20.880495,58.714597 13.732942,69.176395 12.116228,78.841518 5.7480582,97.612444 -0.62011151,116.38337 -6.9882812,135.1543 c -25.2224068,0.44067 -50.5638878,-0.94004 -75.7148438,0.71093 -12.464303,2.94498 -17.541795,21.65788 -6.942904,29.60159 19.10321,14.23824 39.035641,27.31013 58.462435,41.09568 -7.334749,22.92866 -16.347215,45.48221 -22.59375,68.75781 -1.11136,14.2568 18.148334,23.93219 29.026181,14.71041 19.0170774,-13.01134 37.819455,-26.32931 56.755069,-39.46041 20.688935,13.84053 40.449238,29.39153 61.835938,42.16992 12.454506,4.74007 27.859186,-8.41898 23.173416,-21.48689 -7.08546,-21.63243 -14.58366,-43.13927 -21.827713,-64.70646 20.106933,-14.59948 41.477183,-27.64458 60.757813,-43.2754 8.88197,-10.50355 -0.42412,-29.26338 -14.34641,-27.88714 -23.53692,-0.65445 -47.08344,-0.0234 -70.624294,-0.22809 C 62.800804,112.43199 56.335671,88.987753 47.037109,66.730469 43.614528,61.843993 37.651903,58.931658 31.707031,59.0625 Z m 8.78711,99.19141 c 3.342694,10.97149 16.431571,13.61392 26.419921,12.12304 6.040365,0 12.08073,0 18.121094,0 -9.09144,6.79481 -20.071386,11.83656 -27.240234,20.83985 -5.853835,10.11651 1.944589,21.18941 4.205078,30.98047 0.87102,2.68565 2.857612,6.80585 2.390625,7.68945 -9.780975,-6.13422 -18.323091,-15.29041 -29.660156,-18.46289 -12.340626,-1.6056 -20.705445,9.71641 -30.5781252,14.92187 -1.5166256,0.65344 -5.9797026,5.80894 -4.71679692,2.51953 C 2.4061884,218.33936 8.7304675,208.09854 8.234375,196.9043 6.1204596,185.36284 -6.6805541,181.51305 -14.457031,174.61133 c -1.510728,-1.52064 -8.206239,-4.16407 -5.339844,-4.35352 11.3048963,-0.49424 23.2317088,1.92824 34.167969,-1.69531 10.607646,-5.27639 10.998597,-18.69434 15.380859,-28.28516 1.344805,-6.62612 2.724268,-8.86237 4.394471,-0.76074 2.115905,6.24577 4.231811,12.49154 6.347717,18.73731 z" style="stroke-width:1"/>
        <path id="path8771" d="m 32.21875,-83.150391 c -49.956551,-0.769516 -100.558304,13.509237 -140.86523,43.490235 -84.66985,61.415977 -126.58762,175.456766 -102.41602,277.145986 5.26022,55.62158 -15.0692,111.84041 -2.95703,167.45948 2.94546,12.80825 7.94927,25.20041 15.24609,36.16016 77.86231,11.29373 156.283528,-7.12191 234.184763,-0.48887 68.562537,-2.80318 137.915517,14.41548 206.119927,0.32676 11.57553,-2.52889 22.92594,-6.14537 33.73633,-11.00977 14.6696,-70.66844 -11.61379,-143.17021 5.0664,-213.35547 4.1563,-24.38577 2.4534,-49.41929 -0.42382,-73.85156 C 269.37104,65.691704 226.1122,-8.1565136 158.83544,-48.745694 120.94133,-71.761491 76.477493,-83.401894 32.21875,-83.150391 Z m 3.236328,35.59375 c 52.685715,-1.8529 105.261212,19.708173 141.627602,58.038322 53.51021,55.267079 78.56335,137.505449 66.32714,213.470859 -2.55584,8.67771 -1.84994,17.68598 0.1058,26.33848 5.67445,41.01557 4.82461,84.60743 -13.82617,122.43359 -11.46558,22.05891 -33.31187,39.03494 -58.38305,41.75652 -11.07858,2.10759 -22.4918,0.70413 -33.19117,-2.42449 -86.906781,-17.08522 -176.185153,9.93634 -262.67009,-8.35314 -18.59956,-4.06348 -36.75696,-10.47533 -53.40803,-19.49842 7.04945,-88.79607 -11.08058,-178.85782 6.70191,-266.65547 C -161.94144,70.190577 -137.4,24.871757 -98.226291,-4.0150467 -60.139927,-33.058135 -12.080324,-47.803657 35.455078,-47.556641 Z" style="stroke-width:1"/>
        <path id="path8773" d="m 27.208984,-382.19531 c -53.312759,1.36649 -105.673161,30.03905 -133.382814,75.98437 -26.33474,42.53637 -29.3853,98.57757 -6.60742,143.29297 22.1175,45.69501 67.848958,78.130408 117.7940005,85.870212 53.7837825,9.329174 111.7185595,-10.19109 148.1005295,-51.071382 31.64782,-34.36509 45.62313,-84.0082 36.03906,-129.78711 -9.65297,-49.55125 -46.20567,-91.94623 -92.555174,-111.19954 -21.82116,-9.39147 -45.691179,-13.48701 -69.388182,-13.08952 z m 5.621094,35.1914 c 49.484819,-0.31236 98.736622,31.55784 115.825622,78.85239 16.0284,42.00884 3.92599,92.67958 -29.10413,123.34346 -35.213667,33.9122 -90.555724,44.31884 -135.555713,25.55167 -39.39527,-15.64705 -70.112276,-52.89343 -74.939216,-95.28072 -4.994481,-39.66498 12.599312,-81.37764 44.716797,-105.73242 22.31823,-17.53106 50.7476325,-26.79523 79.05664,-26.73438 z" style="stroke-width:1"/>
        <path id="path8775" d="m -41.619141,-232.80664 c -4.313087,-0.54929 -6.553829,3.82646 -5.408203,7.55859 1.177482,34.59386 29.290603,65.15648 63.0625,71.17578 36.262611,7.72231 77.190566,-12.78331 90.097654,-48.10937 3.71065,-9.62919 5.22287,-20.01583 4.97657,-30.30859 -12.139328,0 -24.278651,0 -36.417974,0 2.565497,23.83898 -19.486302,45.78167 -42.984375,44.77539 -22.7254642,0.46412 -44.150196,-20.01999 -42.384765,-43.10743 -8.541483,-4.02778 -18.310434,-0.20077 -27.279297,-1.80468 -1.216535,-0.11655 -2.439053,-0.21318 -3.66211,-0.17969 z" style="stroke-width:1"/>
        <polygon transform="matrix(14.201761,0,0,13.616086,-422.45861,-405.49882)" style="stroke-width:0.07191223" points="52,8 54,8 54,6 56,6 56,4 54,4 54,2 52,2 52,4 50,4 50,6 52,6 " id="polygon8777"/>
        <polygon transform="matrix(14.201761,0,0,13.616086,-422.45861,-405.49882)" style="stroke-width:0.07191223" points="56,11 56,13 58,13 58,15 60,15 60,13 62,13 62,11 60,11 60,9 58,9 58,11 " id="polygon8779"/>
        <polygon transform="matrix(14.201761,0,0,13.616086,-422.45861,-405.49882)" style="stroke-width:0.07191223" points="10,8 12,8 12,6 14,6 14,4 12,4 12,2 10,2 10,4 8,4 8,6 10,6 " id="polygon8781"/>
        <polygon transform="matrix(14.201761,0,0,13.616086,-422.45861,-405.49882)" style="stroke-width:0.07191223" points="4,15 6,15 6,13 8,13 8,11 6,11 6,9 4,9 4,11 2,11 2,13 4,13 " id="polygon8783"/>
    </g>
</svg>
