<?xml version="1.0" encoding="UTF-8" standalone="no"?>
<svg
   xmlns:dc="http://purl.org/dc/elements/1.1/"
   xmlns:cc="http://creativecommons.org/ns#"
   xmlns:rdf="http://www.w3.org/1999/02/22-rdf-syntax-ns#"
   xmlns:svg="http://www.w3.org/2000/svg"
   xmlns="http://www.w3.org/2000/svg"
   height="76.948997"
   width="73.162003"
   id="svg933"
   xml:space="preserve"
   enable-background="new 0 0 100 100"
   viewBox="0 0 73.162003 76.948997"
   y="0px"
   x="0px"
   version="1.1"><metadata
     id="metadata939"><rdf:RDF><cc:Work
         rdf:about=""><dc:format>image/svg+xml</dc:format><dc:type
           rdf:resource="http://purl.org/dc/dcmitype/StillImage" /><dc:title></dc:title></cc:Work></rdf:RDF></metadata><defs
     id="defs937" /><path
     id="path923"
     d="M 47.828,39.645 C 53.93,35.863 58.015,29.124 58.015,21.434 58.015,9.616 48.4,0 36.58,0 24.762,0 15.147,9.615 15.147,21.434 c 0,7.69 4.085,14.429 10.185,18.211 C 10.65,44.402 0,58.202 0,74.449 c 0,1.381 1.119,2.5 2.5,2.5 h 68.162 c 1.381,0 2.5,-1.119 2.5,-2.5 0,-16.247 -10.65,-30.047 -25.334,-34.804 z m -17.113,32.304 4.167,-20 h 3.609 l 5,20 z m 8.144,-23 h -4.314 l -3.138,-5.648 c 1.685,-0.279 3.41,-0.433 5.173,-0.433 2.036,0 4.026,0.196 5.956,0.565 z M 20.147,21.434 C 20.147,12.372 27.519,5 36.58,5 c 9.063,0 16.435,7.372 16.435,16.434 0,9.062 -7.372,16.434 -16.435,16.434 -9.061,0 -16.433,-7.372 -16.433,-16.434 z m 8.198,22.533 3.735,6.724 -4.43,21.259 H 5.098 C 6.157,58.494 15.689,47.39 28.345,43.967 Z M 64.762,71.949 57.501,64.69 c -0.293,-0.293 -0.768,-0.293 -1.061,0 -0.293,0.293 -0.293,0.768 0,1.061 l 6.199,6.198 h -4.821 l -2.03,-2.03 c -0.293,-0.293 -0.768,-0.293 -1.061,0 -0.293,0.293 -0.293,0.768 0,1.061 l 0.97,0.97 h -9.114 l -5.305,-21.22 4.357,-6.536 c 10.893,3.267 19.328,12.267 21.79,23.479 l -6.261,-6.26 c -0.293,-0.293 -0.768,-0.293 -1.061,0 -0.293,0.293 -0.293,0.768 0,1.061 l 7.775,7.774 c 0.075,0.563 0.14,1.13 0.185,1.702 h -3.301 z" /><path
     id="path925"
     d="m 35.31,10.07 c -2.921,0.324 -5.575,1.744 -7.475,3.998 -0.533,0.634 -0.452,1.58 0.181,2.114 0.282,0.236 0.625,0.353 0.966,0.353 0.428,0 0.852,-0.182 1.148,-0.533 1.4,-1.663 3.357,-2.711 5.51,-2.949 0.824,-0.092 1.417,-0.833 1.326,-1.656 C 36.874,10.572 36.117,9.985 35.31,10.07 Z" /><path
     id="path927"
     d="m 26.877,18.832 c -0.823,-0.104 -1.564,0.5 -1.657,1.323 -0.048,0.424 -0.072,0.854 -0.072,1.279 0,0.828 0.672,1.5 1.5,1.5 0.828,0 1.5,-0.672 1.5,-1.5 0,-0.319 0.019,-0.635 0.053,-0.945 0.092,-0.823 -0.501,-1.565 -1.324,-1.657 z" /></svg>
