<?xml version="1.0" encoding="UTF-8" standalone="no"?>
<svg
   xmlns:dc="http://purl.org/dc/elements/1.1/"
   xmlns:cc="http://creativecommons.org/ns#"
   xmlns:rdf="http://www.w3.org/1999/02/22-rdf-syntax-ns#"
   xmlns:svg="http://www.w3.org/2000/svg"
   xmlns="http://www.w3.org/2000/svg"
   height="40"
   width="56"
   id="svg6418"
   version="1.1"
   y="0px"
   x="0px"
   viewBox="0 0 56 40"
   data-name="Layer 1">
  <metadata
     id="metadata6424">
    <rdf:RDF>
      <cc:Work
         rdf:about="">
        <dc:format>image/svg+xml</dc:format>
        <dc:type
           rdf:resource="http://purl.org/dc/dcmitype/StillImage" />
        <dc:title>seo market analysis dashboard</dc:title>
      </cc:Work>
    </rdf:RDF>
  </metadata>
  <defs
     id="defs6422" />
  <title
     id="title6384">seo market analysis dashboard</title>
  <path
     id="path6386"
     d="M 53,0 H 3 A 3,3 0 0 0 0,3 v 34 a 3,3 0 0 0 3,3 h 50 a 3,3 0 0 0 3,-3 V 3 A 3,3 0 0 0 53,0 Z M 2,3 A 1,1 0 0 1 3,2 h 50 a 1,1 0 0 1 1,1 V 6 H 2 Z m 52,34 a 1,1 0 0 1 -1,1 H 3 A 1,1 0 0 1 2,37 V 8 h 52 z" />
  <path
     id="path6388"
     d="M 51,3 V 3 A 1,1 0 1 0 52,4 1,1 0 0 0 51,3 Z" />
  <path
     id="path6390"
     d="M 47,3 V 3 A 1,1 0 1 0 48,4 1,1 0 0 0 47,3 Z" />
  <path
     id="path6392"
     d="M 43,3 V 3 A 1,1 0 1 0 44,4 1,1 0 0 0 43,3 Z" />
  <path
     id="path6394"
     d="m 5,12 h 7 a 1,1 0 0 0 0,-2 H 5 a 1,1 0 0 0 0,2 z" />
  <path
     id="path6396"
     d="m 5,16 h 7 a 1,1 0 0 0 0,-2 H 5 a 1,1 0 0 0 0,2 z" />
  <path
     id="path6398"
     d="m 5,20 h 7 a 1,1 0 0 0 0,-2 H 5 a 1,1 0 0 0 0,2 z" />
  <path
     id="path6400"
     d="m 5,24 h 7 a 1,1 0 0 0 0,-2 H 5 a 1,1 0 0 0 0,2 z" />
  <path
     id="path6402"
     d="m 35,22 h 8.82 a 1,1 0 0 0 0.77,-0.36 1,1 0 0 0 0.21,-0.82 11.91,11.91 0 0 0 -3,-6 L 42.63,13 H 47 a 1,1 0 0 0 0,-2 h -5 a 1,1 0 0 0 -0.9,0.56 l -0.9,1.85 a 12,12 0 0 0 -5,-2.21 1,1 0 0 0 -0.82,0.21 1,1 0 0 0 -0.36,0.77 V 21 A 1,1 0 0 0 35,22 Z m 1,-8.54 A 10.07,10.07 0 0 1 42.54,20 H 36 Z" />
  <path
     id="path6404"
     d="m 51,13 v 0 a 1,1 0 1 0 -1,-1 1,1 0 0 0 1,1 z" />
  <path
     id="path6406"
     d="m 51,14 h -3 a 1,1 0 0 0 0,2 h 3 a 1,1 0 0 0 0,-2 z" />
  <path
     id="path6408"
     d="M 23.57,30.56 22.38,33 H 18 a 1,1 0 0 0 0,2 h 5 a 1,1 0 0 0 0.9,-0.56 L 25.09,32 A 12,12 0 0 0 44.8,25.18 1,1 0 0 0 44.59,24.36 1,1 0 0 0 43.82,24 H 32 V 12.18 A 1,1 0 0 0 31.64,11.41 1,1 0 0 0 30.82,11.2 12,12 0 0 0 23.63,30.48 Z M 30,13.46 V 25 a 1,1 0 0 0 1,1 H 42.54 A 10,10 0 1 1 30,13.46 Z" />
  <path
     id="path6410"
     d="m 14,35 a 1,1 0 1 0 0,-2 v 0 a 1,1 0 1 0 0,2 z" />
  <path
     id="path6412"
     d="m 14,32 h 3 a 1,1 0 1 0 0,-2 h -3 a 1,1 0 0 0 0,2 z" />
</svg>
