<?xml version="1.0" encoding="UTF-8" standalone="no"?>
<svg xmlns:dc="http://purl.org/dc/elements/1.1/" xmlns:cc="http://creativecommons.org/ns#" xmlns:rdf="http://www.w3.org/1999/02/22-rdf-syntax-ns#" xmlns:svg="http://www.w3.org/2000/svg" xmlns="http://www.w3.org/2000/svg" id="svg893" y="0px" x="0px" version="1.1" viewBox="0 0 22.999256 20.0136">
    <metadata id="metadata899">
        <rdf:RDF>
            <cc:Work rdf:about="">
                <dc:format>
                    image/svg+xml
                </dc:format>
                <dc:type rdf:resource="http://purl.org/dc/dcmitype/StillImage"/>
                <dc:title/>
            </cc:Work>
        </rdf:RDF>
    </metadata>
    <defs id="defs897"/>
    <g id="g887" transform="translate(-4.9994266,-1026.3622)">
        <path id="path885" transform="translate(0,1020.3622)" d="m 12.5,6 a 0.50004997,0.50004997 0 0 0 -0.02734,0.00195 0.50004997,0.50004997 0 0 0 -0.04687,0.00391 0.50004997,0.50004997 0 0 0 -0.03711,0.00781 0.50004997,0.50004997 0 0 0 -0.02344,0.00391 0.50004997,0.50004997 0 0 0 -0.01367,0.00391 0.50004997,0.50004997 0 0 0 -0.02539,0.00977 0.50004997,0.50004997 0 0 0 -0.03906,0.017578 0.50004997,0.50004997 0 0 0 -0.01367,0.00586 0.50004997,0.50004997 0 0 0 -0.0332,0.017578 0.50004997,0.50004997 0 0 0 -0.0059,0.00391 0.50004997,0.50004997 0 0 0 -0.03906,0.027344 0.50004997,0.50004997 0 0 0 -0.02148,0.017578 0.50004997,0.50004997 0 0 0 -0.02539,0.021484 0.50004997,0.50004997 0 0 0 -0.02149,0.025391 0.50004997,0.50004997 0 0 0 -0.0039,0.00391 A 0.50004997,0.50004997 0 0 0 12.10936,6.189471 0.50004997,0.50004997 0 0 0 12.08202,6.22658 0.50004997,0.50004997 0 0 0 12.07812,6.23244 0.50004997,0.50004997 0 0 0 12.066406,6.25 L 5.0664062,18.335938 a 0.50004997,0.50004997 0 0 0 0,0.5 l 4,6.927734 A 0.50004997,0.50004997 0 0 0 9.6152344,26 H 23.419922 a 0.50004997,0.50004997 0 0 0 0.43164,-0.248047 l 4.080079,-7 a 0.50004997,0.50004997 0 0 0 0.04883,-0.121094 0.50004997,0.50004997 0 0 0 0.0059,-0.01953 0.50004997,0.50004997 0 0 0 -0.01563,-0.27539 0.50004997,0.50004997 0 0 0 -0.0059,-0.01758 0.50004997,0.50004997 0 0 0 -0.01172,-0.0293 0.50004997,0.50004997 0 0 0 -0.002,-0.0039 0.50004997,0.50004997 0 0 0 -0.01953,-0.03516 l -0.01172,-0.02148 a 0.50004997,0.50004997 0 0 0 -0.0039,-0.0059 L 20.949219,6.25 A 0.50004997,0.50004997 0 0 0 20.517578,6 h -7.99414 z m 0.871094,1 h 6.857422 l 6.402343,11 h -6.84375 z M 12.5,7.5 c 1.981921,3.4324 3.315492,5.742278 3.402344,5.892578 l -2.710938,4.707031 A 0.50004997,0.50004997 0 0 0 12.996094,18.4375 L 9.5,24.511719 6.078125,18.585938 Z M 16.503906,14.355469 18.628906,18 H 14.404297 Z M 13.828125,19 h 12.802734 l -3.498047,6 H 10.373047 Z"/>
    </g>
</svg>
