<svg version="1.0" xmlns="http://www.w3.org/2000/svg"
 width="613.000000pt" height="613.000000pt" viewBox="0 0 613.000000 613.000000"
 preserveAspectRatio="xMidYMid meet">

<g transform="translate(0.000000,613.000000) scale(0.100000,-0.100000)"
fill="#000000" stroke="none">
<path d="M2792 5960 c-311 -39 -666 -190 -897 -381 -184 -151 -336 -338 -438
-538 -75 -146 -109 -235 -144 -381 -24 -97 -26 -126 -30 -398 l-5 -292 -70
-63 c-292 -258 -530 -707 -594 -1117 -21 -136 -29 -432 -15 -565 61 -576 350
-1113 814 -1511 347 -297 740 -477 1237 -566 116 -20 567 -17 695 5 558 98
1011 331 1400 721 365 366 586 823 645 1335 18 153 8 463 -20 621 -71 403
-292 810 -582 1072 l-78 71 0 261 c0 295 -9 372 -67 551 -83 262 -242 518
-429 695 -257 242 -557 395 -914 465 -100 20 -398 28 -508 15z m439 -406 c152
-26 341 -95 454 -166 255 -161 454 -398 550 -653 61 -162 67 -200 72 -487 l5
-268 -70 0 -70 0 -5 268 c-4 239 -6 275 -26 342 -111 373 -428 691 -801 803
-126 38 -190 47 -333 47 -259 0 -526 -85 -717 -229 -83 -62 -224 -208 -277
-286 -93 -137 -164 -320 -183 -467 -5 -45 -10 -171 -10 -280 l0 -198 -71 0
-71 0 5 253 c3 138 11 275 17 302 92 394 345 723 689 895 244 122 571 170 842
124z m-133 -514 c251 -33 483 -197 596 -421 65 -130 76 -192 76 -436 l0 -203
-775 0 -775 0 0 203 c0 239 15 321 82 451 53 102 189 243 293 304 153 89 328
125 503 102z m1427 -1500 c171 -84 361 -418 436 -770 20 -91 23 -135 24 -325
0 -192 -3 -235 -23 -335 -120 -591 -520 -1100 -1077 -1370 -187 -91 -371 -149
-605 -191 -48 -9 -153 -14 -295 -14 -186 0 -238 4 -337 23 -434 83 -803 283
-1119 609 -312 321 -490 712 -518 1133 -25 390 54 730 236 1015 59 91 127 171
172 200 84 56 23 54 1601 52 l1455 -2 50 -25z"/>
<path d="M2940 2959 c-368 -38 -584 -442 -410 -768 31 -58 113 -152 164 -188
l29 -20 -46 -189 c-107 -437 -108 -444 -83 -492 19 -37 65 -78 100 -92 36 -13
550 -13 600 1 68 19 126 89 126 153 0 13 -24 113 -54 222 -29 110 -64 244 -77
298 l-24 99 25 15 c52 32 156 148 182 204 74 152 75 303 4 453 -97 206 -311
327 -536 304z"/>
</g>
</svg>
