<?xml version="1.0" encoding="UTF-8" standalone="no"?>
<svg xmlns:dc="http://purl.org/dc/elements/1.1/" xmlns:cc="http://creativecommons.org/ns#" xmlns:rdf="http://www.w3.org/1999/02/22-rdf-syntax-ns#" xmlns:svg="http://www.w3.org/2000/svg" xmlns="http://www.w3.org/2000/svg" id="svg1255" version="1.1" viewBox="-21 -48 640.00064 585.82971">
    <metadata id="metadata1261">
        <rdf:RDF>
            <cc:Work rdf:about="">
                <dc:format>
                    image/svg+xml
                </dc:format>
                <dc:type rdf:resource="http://purl.org/dc/dcmitype/StillImage"/>
                <dc:title/>
            </cc:Work>
        </rdf:RDF>
    </metadata>
    <defs id="defs1259"/>
    <path id="path1243" d="m 567.62305,184.05859 c -19.399,-0.15659 -36.84445,11.17392 -48.89238,25.66263 -19.9379,19.57726 -39.52172,39.46667 -59.67598,58.81003 -11.80745,-16.49169 -33.30818,-23.39113 -52.94707,-21.18669 -39.52228,-0.72635 -79.22596,2.07397 -118.57687,-2.06101 -25.02183,-4.36727 -49.97767,-13.59356 -75.76317,-10.08433 -40.66447,3.5936 -77.48113,27.28778 -102.11723,59.16887 -1.9017,2.12946 -3.58586,5.15402 -5.49801,6.76082 -19.935944,-12.8516 -48.856489,-7.16036 -62.882843,11.84882 -20.919957,22.36845 -43.4112443,43.41386 -63.136685,66.81329 -4.263004,9.54939 4.235975,18.44454 11.180477,23.89945 16.418291,15.32381 31.173543,32.71901 48.825383,46.6318 11.527886,5.2904 25.306741,-10.04112 17.86914,-20.71485 -12.466567,-14.52139 -26.979179,-27.16965 -40.595703,-40.48828 -3.27906,-1.63194 -3.989209,-6.03442 -0.216797,-7.66602 19.207863,-18.13488 36.089955,-38.94061 55.984376,-56.375 9.965073,-5.25678 21.014383,1.29083 26.94738,9.42591 32.085212,31.7552 65.591652,62.21823 96.669812,94.90222 5.43357,9.94851 -1.11056,21.2591 -9.34189,27.21876 -15.80075,16.21289 -31.6015,32.42578 -47.40226,48.63866 -7.07276,-6.82435 -14.54573,-17.94924 -25.87695,-16.04687 -11.21736,2.38458 -15.560108,19.58373 -5.35937,25.97851 9.64071,8.06813 17.09394,19.63913 28.9414,24.63867 10.97893,1.94089 17.74548,-9.1331 24.46041,-15.73943 19.48462,-20.70055 40.73661,-39.84823 58.78178,-61.8426 7.17385,-11.60248 8.74022,-26.38155 4.53516,-39.31836 46.56277,-6.5669 94.03734,-3.4135 141.11129,-3.95893 28.58612,-0.20152 57.28807,0.78005 85.79105,-1.65825 22.60434,-2.84501 44.03112,-14.30387 58.15485,-32.30924 32.09249,-38.48428 65.28971,-76.04266 97.14307,-114.72874 8.33212,-8.64948 14.55669,-19.67529 15.08294,-31.88585 1.8634,-21.75008 -11.34611,-44.45369 -32.50977,-51.33789 -6.60998,-2.3631 -13.69341,-3.17145 -20.68554,-2.9961 z m 4.58593,29.00586 c 15.26597,0.0875 25.69996,19.97715 16.26954,32.38086 -7.27026,10.98508 -17.42593,19.66954 -25.24824,30.25034 -29.03809,33.52713 -56.56761,68.46464 -86.93731,100.77701 -19.95677,15.83903 -47.07151,12.91305 -71.06438,13.39935 -47.43766,0.40157 -94.89332,-0.81755 -142.31843,0.4151 -19.16715,0.38519 -38.14315,3.48581 -57.13282,5.42969 -6.19932,-2.95529 -10.55222,-9.80792 -16.05703,-14.23534 -21.02774,-20.3882 -42.54981,-40.66978 -63.19101,-61.20802 22.24231,-32.46063 58.92067,-57.92132 99.45312,-56.64649 26.04124,1.03544 50.72573,12.30389 77.04688,12.28516 32.50887,1.52816 65.0692,-0.0241 97.59179,0.54883 11.56811,-0.11678 26.50024,-2.1574 34.26172,8.52539 8.13578,10.06343 5.86244,26.62451 -5.57617,33.26758 -11.20322,6.78427 -24.68202,2.80672 -36.98046,3.8275 -22.67654,0.1967 -45.576,-1.12827 -68.11915,1.02601 -11.61806,4.25506 -11.19578,24.19173 1.17383,27.09766 21.01387,2.32652 42.1744,-0.13476 63.20703,0.83594 15.43287,-0.12955 31.49852,1.58946 46.42383,-3.16016 19.44136,-7.30129 33.74482,-27.02995 33.86133,-47.90625 28.51816,-27.54471 55.66091,-56.55747 85.10351,-83.08789 5.49469,-3.25821 11.99838,-3.74173 18.23242,-3.82227 z"/>
    <path id="path1245" d="m 77.802734,345.66211 c -23.370187,-0.46942 -41.85058,26.33443 -33.091796,48.04101 6.859846,20.55696 34.282036,30.85738 52.617187,18.76563 18.176785,-10.63721 23.451995,-38.38286 8.787105,-54.09766 -6.930574,-8.13808 -17.579407,-13.11277 -28.312496,-12.70898 z m 1.298828,29.05078 c 7.794097,-0.0971 8.46186,13.51264 0.398438,13.82227 -6.766374,0.85215 -10.867529,-9.07111 -4.65625,-12.63086 1.236433,-0.85319 2.755261,-1.29581 4.257812,-1.19141 z"/>
    <path id="path1247" d="m 279.08789,323.47266 c -12.60708,-0.72075 -19.81543,17.84013 -9.78516,25.63867 9.23306,9.31174 27.84075,-0.57475 24.73438,-13.48633 -1.11895,-7.03803 -7.85531,-12.4399 -14.94922,-12.15234 z"/>
    <path id="path1249" d="m 79.320312,456.14453 c -12.721429,-0.72646 -19.817526,18.19041 -9.486328,25.80469 9.26057,9.05555 27.579661,-0.88509 24.478516,-13.64844 -1.114927,-7.05827 -7.882221,-12.46546 -14.992188,-12.15625 z"/>
    <path id="path1251" d="m 344.98828,-50.341797 c -59.6188,-0.767858 -116.09903,43.7070151 -129.7639,101.684526 -12.63659,49.057551 5.03089,104.610491 44.53879,136.579211 38.20021,32.02388 94.74869,40.64627 140.27689,19.77971 44.33123,-19.4597 76.93224,-63.93512 80.15752,-112.503408 C 484.07976,48.354006 461.79253,0.10084487 422.659,-26.257755 400.03679,-41.938463 372.55819,-50.703801 344.98828,-50.341797 Z m 1.04297,29.060547 c 49.49743,-0.957278 96.39247,38.311796 103.97235,87.47897 7.53995,41.62626 -12.55307,86.86395 -49.12474,108.3142 -34.62163,21.28853 -81.39477,20.67995 -114.6562,-3.02559 -33.13731,-22.61153 -51.87568,-64.75759 -44.56836,-104.382814 6.37573,-39.113814 35.91937,-73.2934289 74.09375,-84.015625 9.80154,-2.914918 20.09404,-4.398345 30.2832,-4.369141 z"/>
    <path id="path1253" d="m 342.70117,-0.36523438 c -7.31353,0.19428507 -13.3047,6.84912178 -13.88086,13.93945338 -22.89865,8.182324 -36.0616,37.76813 -24.05664,59.580078 7.96077,14.227408 24.20137,22.424141 40.21094,22.810547 10.52213,1.308717 21.69249,12.496146 16.47266,23.537106 -4.84485,9.01464 -18.55621,12.53071 -27.15821,7.22071 -7.124,-5.53505 -6.84886,-15.14821 -8.48828,-22.98633 -4.59821,-11.103047 -23.9583,-10.73642 -26.80469,1.46289 -4.07215,20.95104 9.25845,43.56816 29.0625,51.11328 2.02202,1.88061 2.13976,5.92583 4.8711,7.81445 6.18555,6.44892 17.6907,5.97745 22.83203,-1.45703 2.11739,-2.27024 0.18402,-7.47102 4.40234,-7.30078 21.5753,-5.84225 36.42273,-29.91152 30.59961,-51.77539 -5.12196,-21.557666 -26.67332,-36.532178 -48.33398,-37.041016 -7.56231,-0.787799 -15.67056,-8.014502 -12.41407,-16.044922 2.68513,-10.663011 19.58236,-15.887675 25.99024,-5.853515 1.50965,6.477053 0.78876,14.914296 7.55273,18.71875 9.28139,6.312345 23.35346,-1.801125 22.66797,-12.982422 1.34366,-16.110843 -9.61971,-31.285391 -24.42834,-36.946501 -5.23561,-0.47922 -4.2312,-6.3386627 -7.64002,-9.1081865 -2.87256,-3.1886285 -7.16178,-4.99262225 -11.45703,-4.70117188 z"/>
</svg>
