<?xml version="1.0" encoding="UTF-8" standalone="no"?>
<svg
   xmlns:dc="http://purl.org/dc/elements/1.1/"
   xmlns:cc="http://creativecommons.org/ns#"
   xmlns:rdf="http://www.w3.org/1999/02/22-rdf-syntax-ns#"
   xmlns:svg="http://www.w3.org/2000/svg"
   xmlns="http://www.w3.org/2000/svg"
   version="1.1"
   x="0px"
   y="0px"
   viewBox="0 0 712.83381 718.48865"
   xml:space="preserve"
   id="svg3693"
   width="712.8338"
   height="718.48865"><metadata
     id="metadata3699"><rdf:RDF><cc:Work
         rdf:about=""><dc:format>image/svg+xml</dc:format><dc:type
           rdf:resource="http://purl.org/dc/dcmitype/StillImage" /><dc:title></dc:title></cc:Work></rdf:RDF></metadata><defs
     id="defs3697" /><style
     type="text/css"
     id="style3603">
	.st0{display:none;}
	.st1{display:inline;}
	.st2{fill:none;stroke:#B3B3B3;stroke-width:0.1;stroke-miterlimit:10;}
	.st3{fill:none;}
</style><g
     class="st0"
     id="g3629"
     style="display:none"
     transform="translate(324.64158,326.96903)"><g
       class="st1"
       id="g3627"
       style="display:inline"><rect
         x="2"
         y="2"
         class="st2"
         width="60"
         height="60"
         id="rect3605"
         style="fill:none;stroke:#b3b3b3;stroke-width:0.1;stroke-miterlimit:10" /><line
         class="st2"
         x1="32"
         y1="2"
         x2="32"
         y2="62"
         id="line3607"
         style="fill:none;stroke:#b3b3b3;stroke-width:0.1;stroke-miterlimit:10" /><line
         class="st2"
         x1="62"
         y1="32"
         x2="2"
         y2="32"
         id="line3609"
         style="fill:none;stroke:#b3b3b3;stroke-width:0.1;stroke-miterlimit:10" /><line
         class="st2"
         x1="2"
         y1="2"
         x2="62"
         y2="62"
         id="line3611"
         style="fill:none;stroke:#b3b3b3;stroke-width:0.1;stroke-miterlimit:10" /><rect
         x="10"
         y="10"
         class="st2"
         width="44"
         height="44"
         id="rect3613"
         style="fill:none;stroke:#b3b3b3;stroke-width:0.1;stroke-miterlimit:10" /><line
         class="st2"
         x1="62"
         y1="2"
         x2="2"
         y2="62"
         id="line3615"
         style="fill:none;stroke:#b3b3b3;stroke-width:0.1;stroke-miterlimit:10" /><line
         class="st2"
         x1="2"
         y1="32"
         x2="32"
         y2="2"
         id="line3617"
         style="fill:none;stroke:#b3b3b3;stroke-width:0.1;stroke-miterlimit:10" /><line
         class="st2"
         x1="32"
         y1="2"
         x2="62"
         y2="32"
         id="line3619"
         style="fill:none;stroke:#b3b3b3;stroke-width:0.1;stroke-miterlimit:10" /><line
         class="st2"
         x1="62"
         y1="32"
         x2="32"
         y2="62"
         id="line3621"
         style="fill:none;stroke:#b3b3b3;stroke-width:0.1;stroke-miterlimit:10" /><line
         class="st2"
         x1="32"
         y1="62"
         x2="2"
         y2="32"
         id="line3623"
         style="fill:none;stroke:#b3b3b3;stroke-width:0.1;stroke-miterlimit:10" /><circle
         class="st2"
         cx="32"
         cy="32"
         r="21"
         id="circle3625"
         style="fill:none;stroke:#b3b3b3;stroke-width:0.1;stroke-miterlimit:10" /></g></g><path
     id="path3631"
     d="m 345.08008,224.13086 c -38.29315,0.43844 -71.54421,31.72656 -79.53711,68.31055 -10.32654,40.451 6.9771,88.41598 44.95117,108.08203 33.1569,18.13779 78.19247,7.65271 100.66992,-22.53711 31.45927,-39.1003 26.58518,-103.2472 -12.72851,-135.29688 -14.80249,-12.2815 -34.08147,-19.21776 -53.35547,-18.55859 z m 2.45703,29.86523 c 29.46802,-0.43059 54.14307,26.20093 56.33203,54.71289 3.52411,27.25005 -11.21372,57.89053 -38.03125,67.7168 -24.80434,9.08756 -54.07575,-2.1093 -66.62891,-25.34766 -17.13482,-29.10162 -9.18556,-72.11924 20.8519,-89.66821 8.38945,-4.95175 18.01035,-7.44747 27.47623,-7.41382 z"
     style="stroke-width:1" /><path
     id="rect3633"
     d="m 616.41797,466.22656 c -44.88408,49.31904 -89.76623,98.63984 -134.65235,147.95703 6.46658,7.10064 12.93002,14.20414 19.39454,21.30664 45.3769,-49.86007 90.75192,-99.72185 136.13086,-149.58007 -6.46674,-7.10114 -12.92982,-14.20561 -19.39454,-21.3086 -0.49283,0.54167 -0.98567,1.08334 -1.47851,1.625 z"
     style="stroke-width:0.99999046" /><path
     id="circle3635"
     d="m 518.16602,476.77734 c -17.49517,-0.28717 -29.13923,19.76858 -24.62696,35.61719 2.95569,14.07864 18.99479,24.07463 32.75977,18.75195 16.52103,-5.54976 22.61586,-27.90119 13.11914,-41.98242 -4.43416,-7.30276 -12.51929,-12.66878 -21.25195,-12.38672 z"
     style="stroke-width:1" /><path
     id="circle3637"
     d="m 600.71094,567.48047 c -17.5063,-0.28748 -29.14801,19.79146 -24.61914,35.64453 2.96981,14.09753 19.06751,24.08213 32.83593,18.69531 16.71839,-5.6837 22.64473,-28.54737 12.64649,-42.57226 -4.4894,-6.9922 -12.38762,-12.03125 -20.86328,-11.76758 z"
     style="stroke-width:1" /><path
     id="path3639"
     d="m 559.49023,379.57422 c -56.28762,-0.61395 -109.18176,35.33376 -134.41998,84.80609 -35.60448,66.65157 -25.06857,155.8951 28.18952,210.28571 35.38473,37.01168 90.72172,54.72563 140.6875,41.71875 52.1678,-12.87576 94.2392,-55.38469 110.96875,-105.88282 21.89562,-63.53158 7.20975,-139.77769 -41.3552,-187.28947 -27.37158,-27.10986 -65.3258,-43.96742 -104.07059,-43.63826 z m -0.6289,29.89844 c 47.61814,-0.8653 92.61454,30.47787 112.79101,72.83203 27.63704,55.07924 18.16829,127.26639 -25.53906,171.38281 -32.35954,33.80865 -85.60659,46.69952 -129.11133,29.03711 C 469.8837,664.46507 437.72084,617.44257 432.73633,567.75 c -6.01366,-51.04809 14.98851,-106.87275 58.4804,-136.65816 19.79745,-13.66097 43.52236,-21.57562 67.6446,-21.61918 z"
     style="stroke-width:1" /><path
     id="path3641"
     d="M 590.43555,23.248047 C 557.71806,29.56112 525.25095,37.341883 492.61987,44.171635 425.27099,58.867459 357.85198,73.372697 290.54688,88.1875 c -3.70559,0.546004 -5.89409,6.367676 -1.14454,7.09375 10.97698,1.200306 21.91031,-2.203805 32.88564,-2.586904 96.15464,-10.248584 192.30945,-20.495501 288.46397,-30.745127 -5.04487,-11.559941 -1.51474,-26.770155 -11.33007,-36.119141 -2.58537,-1.860117 -5.82934,-2.657215 -8.98633,-2.582031 z"
     style="fill:none;stroke-width:1" /><path
     id="path3643"
     d="M 611.67188,84.203125 C 511.34111,95.10751 410.93491,105.64354 310.62305,116.5957 c -3.7377,0.15353 -6.53287,5.70119 -1.89063,6.93164 10.78951,2.3593 22.02462,0.13191 32.98047,0.91407 96.32878,0 192.65755,0 288.98633,0 -4.0527,-12.06463 1.13603,-27.408373 -8.80664,-37.259769 -2.84584,-2.310366 -6.63263,-3.067974 -10.2207,-2.978516 z"
     style="fill:none;stroke-width:1" /><path
     id="path3657"
     d="m 554.82812,405.54102 c -49.85729,1.46082 -95.11041,36.31315 -114.10351,81.63281 -25.92021,58.34887 -12.2925,133.32235 36.25981,175.84353 35.86808,32.31695 91.44795,41.4109 135.01393,19.77688 45.68131,-21.67275 75.48496,-70.10967 78.84232,-120.00797 4.46176,-53.45347 -19.85762,-110.33239 -66.44247,-138.72081 -20.72601,-12.81599 -45.18756,-19.49457 -69.57008,-18.52444 z"
     style="fill:none;stroke-width:1" /><path
     id="path3685"
     d="m 539.43945,171.91406 c -24.09237,1.10044 -48.63207,-0.1632 -72.92578,0.35742 -107.26432,0 -214.52864,0 -321.79297,0 1.53858,19.85984 -1.03859,41.40047 -14.36328,57.19532 -11.88949,14.90972 -31.692075,22.77171 -50.462889,20.40429 -4.622141,-0.60071 -7.883218,4.29943 -5.841797,8.42969 0,41.88672 0,83.77344 0,125.66016 22.916378,-3.72784 48.411206,5.4446 60.421876,25.8457 9.08996,14.01168 10.93821,30.98136 10.83008,47.17969 3.4544,7.58031 13.12875,3.57821 19.33191,4.09472 79.7563,0.63155 159.51585,0.0476 239.27356,0.25684 5.23954,-10.29702 10.87122,-20.55521 17.8457,-29.91601 -83.56966,-10e-6 -167.13932,0 -250.70898,0 -4.44906,-35.97834 -32.22468,-69.84298 -68.81641,-75.9043 -2.312923,-0.71325 0.26414,-5.14259 -0.50195,-7.2168 -0.14634,-22.84664 -0.15855,-45.89154 -0.002,-68.61523 36.78037,-6.11902 64.85485,-40.01559 69.24219,-76.24024 28.10576,0.38169 56.42539,-0.1862 84.62109,0.0371 88.91016,0 177.82032,0 266.73047,0 4.46171,36.30496 32.7625,70.39744 69.75781,76.09375 -1.29347,15.5999 0.21109,31.40464 -0.33313,47.08202 -0.0301,11.46743 -0.0556,22.93493 -0.009,34.40236 9.60134,2.04382 18.47351,5.49445 27.58008,9.21484 0,-40.20443 0,-80.40885 0,-120.61328 -21.47176,3.26968 -45.28203,-4.10527 -58.04493,-22.38672 -10.84906,-14.4348 -13.53814,-33.13579 -13.15625,-50.66016 -1.19459,-3.52695 -5.26217,-4.87034 -8.67578,-4.70117 z"
     style="stroke-width:1" /><path
     id="path3687"
     d="M 589.55469,-1.984375 C 544.73648,6.3280018 500.45596,17.308524 455.80967,26.498177 311.46604,58.001824 166.88801,88.595727 22.748047,120.91797 2.654671,128.95621 -6.5202649,153.97595 -0.06821757,173.93292 8.7715438,223.13399 19.006891,272.11637 26.889948,321.45506 27.400577,374.9474 25.798021,428.5136 27.75,481.95898 c 3.334208,18.93412 22.298224,33.97776 41.658203,31.20895 106.163407,-0.002 212.326827,-0.004 318.490237,-0.006 1.24431,-10.39755 3.97131,-20.28337 8.25781,-29.90625 -111.64537,-0.25787 -223.34125,0.50245 -334.955078,-0.39453 -8.68652,-3.16215 -6.893048,-14.24079 -6.727716,-21.5625 0.214517,-101.27141 -0.472663,-202.56959 0.370294,-303.82422 2.319062,-8.54638 12.571802,-7.59607 19.416015,-7.11748 186.336505,0.22212 372.720095,-0.47218 559.027345,0.36943 8.72556,3.10556 6.95598,14.29491 6.79297,21.58789 0,68.83203 0,137.66407 0,206.4961 9.68686,5.91815 19.12303,12.31223 27.60156,19.89062 -0.37738,-81.37877 0.66838,-162.78998 -0.53711,-244.14844 -1.45158,-9.37367 -6.45002,-18.16051 -13.79883,-24.16406 -2.95108,-18.25992 0.004,-38.666386 -10.43359,-54.953123 -2.47446,-4.241239 -6.87031,-7.19866 -9.85742,-10.679688 -4.0266,-17.833393 -2.57434,-38.456981 -14.79883,-53.386718 -7.04929,-8.274939 -17.68789,-13.7976756 -28.70117,-13.353516 z m 2.16406,29.107422 c 8.93227,0.526719 10.44725,10.718522 11.17598,17.717867 -0.27469,5.103623 6.60774,15.509794 -2.35681,14.17529 C 497.82736,69.962626 395.11681,80.909047 292.40625,91.855469 391.70231,70.150639 491.04629,48.545721 590.40234,27.123047 l 0.66407,-0.01953 z m 22.73047,61.085937 c 9.20377,1.58326 10.54195,13.105036 9.88476,20.773436 -0.0512,3.73721 2.45149,7.92926 1.11914,11.41016 -104.4639,0.11397 -208.94254,0.0162 -313.4121,0.0488 100.78926,-10.83524 201.61584,-21.641075 302.4082,-32.232426 z"
     style="stroke-width:1" /></svg>
