<?xml version="1.0" encoding="iso-8859-1"?>
<!-- Generator: Adobe Illustrator 19.0.0, SVG Export Plug-In . SVG Version: 6.00 Build 0)  -->
<svg version="1.1" id="Layer_1" xmlns="http://www.w3.org/2000/svg" xmlns:xlink="http://www.w3.org/1999/xlink" x="0px" y="0px"
	 viewBox="0 0 512 512" style="enable-background:new 0 0 512 512;" xml:space="preserve">
<g>
	<g>
		<path d="M276.995,98.317c0,4.119,0.013,13.621,14.758,17.442V80.874C277.008,84.696,276.995,94.198,276.995,98.317z"/>
	</g>
</g>
<g>
	<g>
		<path d="M322.168,149.452v34.884c14.745-3.82,14.758-13.322,14.758-17.442C336.926,162.774,336.913,153.272,322.168,149.452z"/>
	</g>
</g>
<g>
	<g>
		<path d="M306.96,0c-73.119,0-132.605,59.486-132.605,132.605s59.487,132.605,132.605,132.605
			c73.119,0,132.605-59.486,132.605-132.605S380.08,0,306.96,0z M347.342,127.743c13.084,8.728,19.999,22.266,19.999,39.151
			s-6.916,30.423-19.999,39.151c-6.932,4.624-15.366,7.706-25.174,9.229v14.957h-30.416v-14.957
			c-9.808-1.524-18.242-4.605-25.174-9.229c-13.084-8.728-19.999-22.266-19.999-39.151h30.416c0,4.119,0.013,13.621,14.758,17.442
			v-37.638c-9.808-1.524-18.242-4.606-25.174-9.23c-13.084-8.728-19.999-22.266-19.999-39.151c0-16.885,6.916-30.423,19.999-39.151
			c6.932-4.624,15.366-7.706,25.174-9.23V34.979h30.416v14.957c9.808,1.524,18.242,4.605,25.174,9.23
			c13.084,8.728,19.999,22.266,19.999,39.151h-30.416c0-4.119-0.013-13.621-14.758-17.442v37.638
			C331.976,120.038,340.411,123.119,347.342,127.743z"/>
	</g>
</g>
<g>
	<g>
		<polygon points="0.28,305.681 0.28,512 75.285,512 75.285,481.584 75.285,472.804 75.285,336.097 75.285,307.919 75.285,305.681 
					"/>
	</g>
</g>
<g>
	<g>
		<polygon points="500.436,354.179 373.879,388.961 266.058,362.665 273.265,333.116 373.424,357.543 373.651,357.48 
			373.651,318.419 233.628,283.355 105.701,303.201 105.701,305.681 105.701,333.981 105.701,438.787 105.701,469.394 
			179.63,461.101 322.874,501.312 511.72,397.229 		"/>
	</g>
</g>
<g>
</g>
<g>
</g>
<g>
</g>
<g>
</g>
<g>
</g>
<g>
</g>
<g>
</g>
<g>
</g>
<g>
</g>
<g>
</g>
<g>
</g>
<g>
</g>
<g>
</g>
<g>
</g>
<g>
</g>
</svg>
