
<?xml version="1.0" encoding="UTF-8" standalone="no"?>
<!DOCTYPE svg PUBLIC "-//W3C//DTD SVG 1.1//EN" "http://www.w3.org/Graphics/SVG/1.1/DTD/svg11.dtd">
<svg version="1.1" xmlns="http://www.w3.org/2000/svg" xmlns:xlink="http://www.w3.org/1999/xlink" preserveAspectRatio="xMidYMid meet" viewBox="0 0 512 512" width="512" height="512"><defs><path d="M322.76 327.48L322.76 349.49L294.91 349.49L294.91 381.85L295.53 381.85L297.1 381.88L298.66 381.98L300.2 382.13L301.72 382.35L303.22 382.63L304.71 382.96L306.16 383.35L307.6 383.8L309.01 384.3L310.39 384.85L311.75 385.46L313.08 386.11L314.38 386.82L315.65 387.57L316.88 388.37L318.08 389.22L319.25 390.11L320.38 391.04L321.48 392.02L322.53 393.04L323.55 394.09L324.53 395.19L325.46 396.32L326.35 397.49L327.2 398.69L328 399.93L328.75 401.19L329.46 402.49L330.11 403.82L330.72 405.18L331.27 406.56L331.77 407.97L332.22 409.41L332.61 410.87L332.95 412.35L333.22 413.85L333.44 415.37L333.59 416.91L333.69 418.47L333.72 420.04L333.69 421.62L333.59 423.18L333.44 424.72L333.22 426.24L332.95 427.74L332.61 429.22L332.22 430.68L331.77 432.12L331.27 433.53L330.72 434.91L330.11 436.27L329.46 437.6L328.75 438.9L328 440.16L327.2 441.4L326.35 442.6L325.46 443.77L324.53 444.9L323.55 446L322.53 447.05L321.48 448.07L320.38 449.05L319.25 449.98L318.08 450.87L316.88 451.72L315.65 452.52L314.38 453.27L313.08 453.98L311.75 454.63L310.39 455.24L309.01 455.79L307.6 456.29L306.16 456.74L304.71 457.13L303.22 457.46L301.72 457.74L300.2 457.96L298.66 458.11L297.1 458.21L295.53 458.24L294.91 458.24L294.91 467.66L272.9 467.66L272.9 458.24L245.04 458.24L245.04 436.22L272.9 436.22L272.9 403.87L272.28 403.87L270.71 403.83L269.16 403.74L267.63 403.58L266.11 403.37L264.61 403.09L263.14 402.76L261.68 402.36L260.25 401.92L258.84 401.42L257.46 400.86L256.1 400.26L254.77 399.6L253.48 398.9L252.21 398.14L250.97 397.34L249.77 396.5L248.6 395.61L247.47 394.67L246.37 393.7L245.31 392.68L244.29 391.62L243.31 390.53L242.38 389.4L241.49 388.23L240.64 387.03L239.83 385.79L239.08 384.52L238.37 383.22L237.71 381.89L237.1 380.54L236.55 379.15L236.04 377.74L235.6 376.31L235.2 374.85L234.87 373.37L234.59 371.87L234.37 370.34L234.21 368.8L234.12 367.24L234.09 365.67L234.12 364.1L234.21 362.54L234.37 361L234.59 359.47L234.86 357.97L235.2 356.49L235.59 355.03L236.03 353.6L236.53 352.19L237.09 350.8L237.69 349.45L238.35 348.12L239.06 346.82L239.81 345.55L240.61 344.32L241.46 343.11L242.35 341.95L243.28 340.81L244.26 339.72L245.27 338.66L246.33 337.65L247.42 336.67L248.56 335.74L249.72 334.84L250.93 334L252.16 333.2L253.43 332.44L254.73 331.74L256.06 331.08L257.41 330.48L258.8 329.92L260.21 329.42L261.64 328.98L263.1 328.59L264.58 328.25L266.09 327.98L267.61 327.76L269.15 327.6L270.71 327.51L272.28 327.48L272.9 327.48L272.9 318.05L294.91 318.05L294.91 327.48L322.76 327.48ZM294.91 436.22L295.53 436.22L297.19 436.14L298.81 435.89L300.37 435.49L301.86 434.95L303.27 434.27L304.61 433.45L305.85 432.52L307 431.48L308.04 430.33L308.96 429.08L309.77 427.74L310.44 426.33L310.98 424.85L311.38 423.3L311.62 421.69L311.71 420.04L311.62 418.39L311.38 416.79L310.98 415.24L310.43 413.76L309.75 412.34L308.94 411.01L308 409.76L306.96 408.61L305.81 407.57L304.56 406.64L303.23 405.82L301.81 405.14L300.33 404.6L298.78 404.2L297.18 403.95L295.53 403.87L294.91 403.87L294.91 436.22ZM270.53 349.58L268.93 349.82L267.38 350.22L265.89 350.77L264.48 351.45L263.15 352.26L261.9 353.19L260.75 354.24L259.7 355.39L258.77 356.64L257.96 357.97L257.28 359.38L256.73 360.87L256.33 362.42L256.08 364.02L256 365.67L256.06 366.78L256.25 367.87L256.57 368.95L257.01 370.02L257.58 371.08L258.28 372.12L259.1 373.15L260.04 374.17L261.12 375.17L262.32 376.17L263.65 377.15L265.1 378.11L266.68 379.07L268.39 380.01L270.22 380.93L272.18 381.85L272.79 381.85L272.79 349.49L272.18 349.49L270.53 349.58Z" id="b2MkLKMoGc"></path><path d="M460.8 53.76L460.8 512L107.01 512L107.01 458.24L51.2 458.24L51.2 0L404.99 0L404.99 53.76L460.8 53.76ZM129.02 489.98L438.78 489.98L438.78 75.78L129.02 75.78L129.02 489.98ZM73.22 436.22L107.01 436.22L107.01 53.76L382.98 53.76L382.98 22.02L73.22 22.02L73.22 436.22Z" id="cRbcWoDbj"></path><path d="M345.5 96.77C345.5 96.77 345.5 96.77 345.5 96.77C345.5 109.98 345.5 117.32 345.5 118.78C345.5 118.78 345.5 118.78 345.5 118.78C271.52 118.78 230.43 118.78 222.21 118.78C222.21 118.78 222.21 118.78 222.21 118.78C222.21 105.57 222.21 98.24 222.21 96.77C222.21 96.77 222.21 96.77 222.21 96.77C296.18 96.77 337.28 96.77 345.5 96.77Z" id="cAbIWzbrL"></path><path d="M406.43 148.28C406.43 148.28 406.43 148.28 406.43 148.28C406.43 161.48 406.43 168.82 406.43 170.29C406.43 170.29 406.43 170.29 406.43 170.29C259.34 170.29 177.62 170.29 161.28 170.29C161.28 170.29 161.28 170.29 161.28 170.29C161.28 157.08 161.28 149.74 161.28 148.28C161.28 148.28 161.28 148.28 161.28 148.28C308.37 148.28 390.08 148.28 406.43 148.28Z" id="hzQhCqEAJ"></path><path d="M406.43 199.78C406.43 199.78 406.43 199.78 406.43 199.78C406.43 212.99 406.43 220.33 406.43 221.8C406.43 221.8 406.43 221.8 406.43 221.8C259.34 221.8 177.62 221.8 161.28 221.8C161.28 221.8 161.28 221.8 161.28 221.8C161.28 208.59 161.28 201.25 161.28 199.78C161.28 199.78 161.28 199.78 161.28 199.78C308.37 199.78 390.08 199.78 406.43 199.78Z" id="acGRcfm2J"></path><path d="M406.43 251.29C406.43 251.29 406.43 251.29 406.43 251.29C406.43 264.5 406.43 271.84 406.43 273.31C406.43 273.31 406.43 273.31 406.43 273.31C259.34 273.31 177.62 273.31 161.28 273.31C161.28 273.31 161.28 273.31 161.28 273.31C161.28 260.1 161.28 252.76 161.28 251.29C161.28 251.29 161.28 251.29 161.28 251.29C308.37 251.29 390.08 251.29 406.43 251.29Z" id="bXuAF6aEg"></path></defs><g><g><g><use xlink:href="#b2MkLKMoGc" opacity="1" fill="#000000" fill-opacity="1"></use><g><use xlink:href="#b2MkLKMoGc" opacity="1" fill-opacity="0" stroke="#000000" stroke-width="1" stroke-opacity="0"></use></g></g><g><use xlink:href="#cRbcWoDbj" opacity="1" fill="#000000" fill-opacity="1"></use><g><use xlink:href="#cRbcWoDbj" opacity="1" fill-opacity="0" stroke="#000000" stroke-width="1" stroke-opacity="0"></use></g></g><g><use xlink:href="#cAbIWzbrL" opacity="1" fill="#000000" fill-opacity="1"></use><g><use xlink:href="#cAbIWzbrL" opacity="1" fill-opacity="0" stroke="#000000" stroke-width="1" stroke-opacity="0"></use></g></g><g><use xlink:href="#hzQhCqEAJ" opacity="1" fill="#000000" fill-opacity="1"></use><g><use xlink:href="#hzQhCqEAJ" opacity="1" fill-opacity="0" stroke="#000000" stroke-width="1" stroke-opacity="0"></use></g></g><g><use xlink:href="#acGRcfm2J" opacity="1" fill="#000000" fill-opacity="1"></use><g><use xlink:href="#acGRcfm2J" opacity="1" fill-opacity="0" stroke="#000000" stroke-width="1" stroke-opacity="0"></use></g></g><g><use xlink:href="#bXuAF6aEg" opacity="1" fill="#000000" fill-opacity="1"></use><g><use xlink:href="#bXuAF6aEg" opacity="1" fill-opacity="0" stroke="#000000" stroke-width="1" stroke-opacity="0"></use></g></g></g></g></svg>
