<svg id="Capa_1" enable-background="new 0 0 475.293 475.293" height="512" viewBox="0 0 475.293 475.293" width="512" xmlns="http://www.w3.org/2000/svg"><path d="m237.647 0c-131.037 0-237.647 106.61-237.647 237.647s106.61 237.647 237.647 237.647 237.647-106.61 237.647-237.647-106.611-237.647-237.647-237.647zm0 445.587c-114.66 0-207.941-93.28-207.941-207.941s93.28-207.941 207.941-207.941 207.941 93.28 207.941 207.941-93.281 207.941-207.941 207.941z"/><path d="m297.058 118.823c8.282 0 16.927 1.044 26.413 3.206l6.585-28.981c-11.676-2.64-22.468-3.931-32.998-3.931-76.808 0-139.451 58.832-147.028 133.676h-31.207v29.707h31.207c7.577 74.845 70.22 133.676 147.028 133.676 10.53 0 21.322-1.291 32.998-3.931l-6.585-28.981c-9.486 2.161-18.131 3.206-26.413 3.206-60.432 0-109.918-45.516-117.322-103.97h117.322v-29.706h-117.322c7.405-58.455 56.89-103.971 117.322-103.971z"/></svg>