<svg version="1.0" xmlns="http://www.w3.org/2000/svg"
 width="658.000000pt" height="658.000000pt" viewBox="0 0 658.000000 658.000000"
 preserveAspectRatio="xMidYMid meet">

<g transform="translate(0.000000,658.000000) scale(0.100000,-0.100000)"
fill="#000000" stroke="none">
<path d="M3190 6475 c-8 -2 -49 -9 -90 -15 -116 -19 -208 -53 -420 -155 -227
-109 -276 -124 -427 -132 -170 -9 -271 16 -369 91 -60 46 -105 49 -131 9 -16
-24 -18 -52 -17 -228 1 -229 11 -284 88 -460 l44 -100 6 -165 c4 -152 24 -312
70 -565 l14 -79 -68 -73 c-120 -125 -166 -251 -157 -423 14 -258 190 -470 445
-536 l69 -18 27 -90 c39 -129 97 -243 171 -341 l65 -85 0 -150 0 -150 -49 0
c-34 0 -55 -6 -67 -18 -10 -9 -59 -103 -110 -207 l-92 -190 -438 -204 c-730
-339 -737 -344 -914 -521 -165 -165 -257 -310 -325 -513 -59 -176 -65 -238
-65 -637 0 -356 0 -357 23 -391 l23 -34 2779 -3 c2454 -2 2781 0 2801 13 42
28 46 66 42 460 l-4 370 -31 117 c-65 242 -184 451 -354 619 -53 53 -136 123
-184 154 -86 57 -285 160 -480 248 -55 25 -149 68 -210 97 -60 29 -154 72
-209 97 -54 24 -139 64 -188 89 l-90 45 -89 187 c-50 103 -97 195 -106 204
-11 13 -31 18 -65 18 l-48 0 0 151 0 152 34 41 c94 115 174 275 206 414 14 59
10 56 125 91 148 44 275 149 347 287 52 99 71 187 65 299 -8 149 -59 265 -168
380 l-49 52 36 159 c76 343 91 516 59 669 -36 172 -129 329 -257 434 -63 51
-205 130 -273 151 -27 9 -68 40 -125 94 -205 197 -417 283 -715 291 -77 2
-147 2 -155 0z m386 -303 c50 -17 107 -40 125 -51 l34 -21 -58 0 c-37 0 -70
-6 -87 -16 -59 -35 -77 -111 -40 -172 24 -39 54 -52 125 -52 57 0 165 -29 230
-63 38 -19 165 -133 165 -147 0 -4 -24 -3 -52 2 -64 12 -221 -4 -312 -32 -89
-28 -191 -83 -366 -197 -254 -165 -344 -201 -520 -210 -220 -11 -403 56 -562
205 -39 37 -90 94 -114 127 -50 71 -121 214 -131 265 l-6 35 44 -42 c92 -87
191 -144 319 -185 65 -20 95 -23 230 -23 184 1 265 19 400 92 190 102 240 153
224 227 -9 46 -49 93 -90 106 -34 12 -41 9 -177 -59 -163 -82 -347 -136 -347
-102 0 15 145 147 210 191 106 72 230 126 341 150 24 5 107 8 184 6 125 -3
150 -7 231 -34z m754 -479 c179 -199 193 -536 29 -713 -30 -32 -33 -33 -40
-15 -14 35 -10 122 12 252 33 198 16 344 -55 485 -41 81 -25 79 54 -9z m-281
-480 c-13 -79 -10 -234 6 -293 23 -88 73 -177 135 -244 l58 -62 -84 -414
c-103 -504 -132 -621 -183 -725 -102 -206 -293 -382 -493 -452 -61 -22 -91
-26 -188 -27 -139 -1 -197 12 -316 70 -220 107 -392 322 -458 574 -40 152
-196 903 -196 944 0 16 17 43 49 75 60 61 109 157 117 228 4 28 9 55 13 61 4
6 42 0 101 -15 119 -30 315 -41 445 -24 192 26 330 73 501 172 220 127 347
176 460 178 l41 1 -8 -47z m486 -855 c40 -72 46 -170 15 -251 -25 -65 -57
-107 -114 -148 -38 -28 -73 -39 -61 -19 3 5 26 112 51 237 24 125 47 234 49
242 8 20 27 1 60 -61z m-2416 -81 c13 -71 34 -172 47 -225 33 -138 33 -138
-20 -104 -54 33 -107 100 -131 164 -32 88 -8 223 53 291 8 9 19 14 22 10 4 -5
17 -66 29 -136z m689 -1426 c81 -57 228 -112 347 -132 90 -14 249 -7 345 16
36 9 115 40 177 70 62 30 115 55 118 55 3 0 5 -60 5 -134 l0 -135 -162 -124
c-180 -137 -336 -247 -351 -247 -12 0 -298 195 -419 287 l-98 74 0 144 c0 80
3 145 6 145 3 0 18 -8 32 -19z m1310 -540 c34 -77 62 -147 62 -156 0 -16 -319
-369 -402 -443 l-48 -44 -110 169 c-60 92 -110 172 -110 178 0 5 86 78 192
160 105 83 225 178 267 212 42 34 78 62 81 62 3 1 34 -62 68 -138z m-1501 56
c48 -40 144 -115 213 -168 69 -52 148 -112 177 -134 33 -25 50 -45 47 -55 -8
-23 -208 -340 -215 -340 -9 0 -377 376 -423 433 l-38 47 20 49 c56 129 112
241 120 241 6 0 50 -33 99 -73z m-537 -337 c-32 -28 -47 -36 -55 -28 -7 7 -7
12 0 14 6 3 28 15 50 28 56 33 56 32 5 -14z m2445 -6 c25 -16 33 -34 16 -34
-5 0 -28 18 -52 41 -43 40 -34 38 36 -7z m-2234 -120 l34 -36 -53 -49 c-29
-27 -57 -49 -62 -49 -15 0 -73 81 -64 90 19 18 99 80 105 80 3 0 21 -16 40
-36z m2087 -11 l52 -48 -35 -38 -36 -38 -54 47 -54 46 31 39 c17 21 34 39 38
39 3 0 30 -21 58 -47z m-2487 -58 c280 -349 646 -669 1073 -935 82 -51 188
-113 237 -138 l88 -46 43 19 c55 24 266 150 383 229 357 238 598 450 906 796
46 52 94 107 105 123 12 15 27 27 34 27 21 0 511 -238 587 -286 88 -55 233
-190 304 -283 66 -87 143 -246 169 -349 19 -76 42 -312 30 -312 -3 1 -16 7
-30 15 -47 27 -129 9 -144 -30 -3 -9 -6 -84 -6 -166 l0 -149 -70 0 -70 0 0
306 0 306 -34 34 c-37 37 -74 44 -121 22 -52 -24 -55 -41 -55 -368 l0 -300
-75 0 -75 0 0 155 c0 156 0 156 -26 180 -21 19 -38 25 -75 25 -41 0 -51 -4
-73 -31 -26 -30 -26 -33 -26 -184 l0 -154 -75 2 -75 2 0 143 c0 187 -17 222
-105 222 -27 0 -44 -8 -66 -29 l-29 -29 0 -150 0 -150 -69 -7 c-39 -4 -75 -4
-80 0 -7 4 -11 61 -11 156 l0 151 -29 29 c-36 35 -95 40 -132 10 -23 -18 -24
-26 -29 -183 l-5 -163 -77 -3 -78 -3 0 146 c0 88 -4 155 -11 168 -31 60 -106
76 -156 33 l-28 -24 -5 -159 -5 -158 -75 0 -75 0 -2 145 c-1 80 -5 155 -8 167
-6 27 -53 53 -95 53 -21 0 -41 -9 -61 -29 -29 -29 -29 -30 -29 -148 0 -65 -3
-135 -6 -155 l-7 -38 -73 0 -74 0 0 140 c0 139 0 140 -27 169 -37 40 -103 45
-144 12 -23 -18 -24 -27 -29 -168 l-5 -148 -77 -3 -78 -3 0 151 c0 85 -5 160
-10 171 -13 24 -61 49 -96 49 -16 0 -38 -12 -60 -34 l-34 -34 0 -151 0 -152
-77 3 -76 3 -1 50 c-1 28 -3 96 -4 153 -2 100 -3 105 -31 133 -22 21 -39 29
-66 29 -88 0 -105 -38 -105 -230 l0 -141 -77 3 -78 3 -5 158 -5 159 -28 24
c-49 42 -124 27 -152 -31 -11 -25 -15 -67 -15 -174 l0 -141 -74 0 -73 0 -6 83
c-4 45 -7 115 -7 155 0 68 -2 76 -29 103 -39 38 -97 40 -138 5 l-28 -24 -5
-159 -5 -158 -75 0 -75 0 -5 158 -5 159 -28 24 c-42 36 -111 29 -143 -15 -7
-9 -15 -81 -19 -168 l-7 -153 -74 0 -74 0 0 295 c0 243 -3 301 -15 325 -30 58
-86 75 -145 45 -49 -25 -53 -58 -49 -379 l4 -291 -72 -3 -73 -3 0 156 0 157
-29 29 c-33 33 -93 40 -127 14 -10 -8 -23 -15 -28 -15 -14 0 2 196 23 285 73
298 272 551 555 706 89 48 518 248 527 246 4 -1 35 -38 70 -82z m1432 -62 c47
-67 180 -283 176 -287 -2 -2 -50 -29 -106 -60 l-103 -58 -83 46 c-46 25 -95
54 -107 64 l-23 19 97 161 c54 89 102 162 106 162 5 0 24 -21 43 -47z m862
-85 c24 -23 42 -45 39 -50 -7 -11 -27 5 -65 54 -40 50 -30 48 26 -4z m-1785
-13 c-24 -24 -48 -42 -53 -38 -10 6 71 82 88 83 5 0 -11 -20 -35 -45z m1648
-111 l44 -47 -41 -41 -41 -41 -44 50 -45 50 37 37 c20 20 39 36 41 37 3 1 24
-20 49 -45z m-1429 -4 l34 -29 -31 -39 c-54 -68 -56 -69 -101 -26 l-39 39 36
41 c20 23 44 42 52 43 8 0 30 -13 49 -29z m216 -172 c25 -17 45 -35 45 -39 0
-15 -52 -99 -62 -99 -6 0 -32 18 -59 41 l-49 41 30 34 c16 19 30 39 30 44 0
17 18 11 65 -22z m993 -7 c18 -22 32 -44 32 -49 0 -5 -21 -26 -47 -46 l-47
-36 -22 27 c-12 16 -29 40 -38 54 -15 25 -14 26 27 57 23 17 47 31 53 31 6 1
25 -17 42 -38z m-768 -141 c0 -5 6 -10 13 -10 6 0 23 -9 36 -19 l24 -19 -24
-56 c-13 -30 -28 -56 -33 -56 -12 0 -106 70 -106 80 0 4 6 13 14 19 8 6 19 25
26 41 12 28 50 43 50 20z m527 -39 l31 -48 -58 -41 -59 -40 -26 55 c-14 30
-25 59 -25 63 0 9 80 59 95 59 6 1 24 -21 42 -48z m-269 -151 c25 -65 25 -68
-1 -85 -24 -15 -28 -15 -57 0 -17 9 -30 19 -28 23 2 4 14 35 27 70 26 69 30
69 59 -8z"/>
</g>
</svg>
