<?xml version="1.0" encoding="UTF-8" standalone="no"?>
<svg
   xmlns="http://www.w3.org/2000/svg"
   height="64709.707"
   width="64701.496"
   id="svg16899"
   version="1.1"
   y="0px"
   x="0px"
   viewBox="0 0 64701.501 64709.704">
  <metadata
     id="metadata16905">
  </metadata>
  <defs
     id="defs16903" />
  <title
     id="title16869">tax-percent-bill-payment-taxes</title>
  <g
     style="stroke-width:0.00571026"
     transform="matrix(175.12342,0,0,175.12342,20447.115,33050.776)"
     id="g16893">
    <path
       style="stroke-width:0.00571025"
       id="path16871"
       d="M 246.54623,-158.49217 H 132.43782 a 30.788521,30.788521 0 0 0 -24.86481,-30.12349 6.1577043,6.1577043 0 0 0 -7.21683,4.86459 l -4.92616,25.24659 H 46.32233 l -4.926164,-25.24659 a 6.1577043,6.1577043 0 0 0 -7.21683,-4.86459 30.788521,30.788521 0 0 0 -24.9510182,30.12349 H -110.60059 a 6.1577043,6.1577043 0 0 0 -6.15772,6.1577 V 32.396666 a 6.1577043,6.1577043 0 0 0 6.15772,6.157693 H 43.736094 a 21.853691,21.853691 0 0 0 -0.911343,11.76737 L 29.536427,98.006989 A 43.417973,43.417973 0 0 0 23.748184,95.925706 43.10393,43.10393 0 1 0 53.711575,149.01127 L 67.781929,98.308733 81.864598,148.99896 A 43.239399,43.239399 0 1 0 106.0459,98.006989 L 92.603634,49.484292 94.728042,38.554359 H 246.54623 a 6.1577043,6.1577043 0 0 0 6.15772,-6.157693 V -152.33447 a 6.1577043,6.1577043 0 0 0 -6.15772,-6.1577 z m -135.46948,-15.81914 a 18.664001,18.664001 0 0 1 8.73778,19.51991 L 96.298256,-34.125018 c -0.06157,0.221678 -0.110839,0.443355 -0.153937,0.665033 L 84.106008,28.498839 A 24.877125,24.877125 0 0 0 79.906454,25.284512 6.1146004,6.1146004 0 0 0 79.069007,24.828839 24.199779,24.199779 0 0 0 72.745043,22.291872 Z M 67.036846,58.499166 A 12.315408,12.315408 0 1 1 79.352255,46.183757 v 0.116983 0 A 12.315408,12.315408 0 0 1 67.036846,58.499145 Z M -43.524735,1.6081399 A 74.619061,74.619061 0 0 0 -58.34017,-19.863773 73.541462,73.541462 0 0 0 -79.812085,-34.685369 v -50.560909 a 72.42076,72.42076 0 0 0 36.29351,-36.299662 H 88.256296 l -3.294374,16.90289 a 49.175426,49.175426 0 0 0 -48.436501,83.978774 5.7020341,5.7020341 0 0 0 0.566509,0.523405 48.590445,48.590445 0 0 0 29.286042,10.8437173 L 64.247405,1.6081399 Z M 68.74253,-21.575616 c -0.264782,0 -0.486459,0 -0.769714,0 A 36.459768,36.459768 0 0 1 45.34941,-29.322008 l -0.04311,-0.04311 -0.03695,-0.0308 a 4.9692672,4.9692672 0 0 0 -0.504936,-0.449512 36.367401,36.367401 0 0 1 -13.737837,-28.64564 36.983172,36.983172 0 0 1 36.946225,-36.946226 36.447451,36.447451 0 0 1 14.575287,3.041907 z m -38.066927,-152.754164 3.078851,15.83761 H 21.543726 a 18.393062,18.393062 0 0 1 9.131877,-15.83761 z M -104.44291,26.238951 V -146.17676 H 93.028515 l -2.395348,12.31541 h -138.117306 -0.08004 a 5.8990807,5.8990807 0 0 0 -1.527109,0.30788 5.9544999,5.9544999 0 0 0 -0.825133,0.18473 5.9421846,5.9421846 0 0 0 -0.843606,0.56651 6.5887437,6.5887437 0 0 0 -1.10223,0.7574 6.9889943,6.9889943 0 0 0 -0.406408,0.61577 6.0160771,6.0160771 0 0 0 -0.905183,1.40396 l -0.04311,0.0616 a 61.577043,61.577043 0 0 1 -35.000379,35.000393 l -0.06779,0.04311 a 6.0160771,6.0160771 0 0 0 -1.323905,0.855921 6.7242132,6.7242132 0 0 0 -0.689679,0.461827 6.557955,6.557955 0 0 0 -0.658863,0.954444 6.3916971,6.3916971 0 0 0 -0.658884,0.985234 5.7081918,5.7081918 0 0 0 -0.178573,0.794344 5.9360269,5.9360269 0 0 0 -0.332511,1.570214 v 0.08004 58.498191 0.08005 a 5.8375036,5.8375036 0 0 0 0.314033,1.557899 5.7081918,5.7081918 0 0 0 0.178574,0.794343 6.1084427,6.1084427 0 0 0 0.658884,0.985233 6.557955,6.557955 0 0 0 0.658883,0.954444 6.7242132,6.7242132 0 0 0 0.689658,0.461828 6.0160771,6.0160771 0 0 0 1.323905,0.855922 l 0.06779,0.04311 a 61.484676,61.484676 0 0 1 21.170179,13.830203 62.315968,62.315968 0 0 1 13.830204,21.170186 l 0.04311,0.08005 c 0.05541,0.129322 0.153937,0.233995 0.215519,0.363305 a 5.9606576,5.9606576 0 0 0 0.979076,1.453219 4.5936473,4.5936473 0 0 0 0.480299,0.437197 6.0160771,6.0160771 0 0 0 1.280803,0.868236 6.3609086,6.3609086 0 0 0 0.61577,0.277098 6.0838117,6.0838117 0 0 0 2.14904,0.437202 H 61.815119 l -1.705683,8.743954 A 24.341406,24.341406 0 0 0 52.689395,26.24515 H -104.44291 Z M 41.839521,145.69842 a 30.788521,30.788521 0 1 1 -21.422655,-37.94378 30.991725,30.991725 0 0 1 9.408974,4.4705 6.1577043,6.1577043 0 0 0 9.470549,-3.38058 L 51.482485,65.124851 a 24.390666,24.390666 0 0 0 8.325217,4.482821 l 1.582529,5.695883 z M 100.13451,113.001 a 6.102285,6.102285 0 0 0 5.61582,-0.75738 30.942465,30.942465 0 0 1 9.37819,-4.46434 30.788521,30.788521 0 1 1 -21.391869,37.9253 L 73.644063,73.425451 c 0,-0.07399 -0.0308,-0.147779 -0.05541,-0.221688 l -0.868236,-3.115802 a 24.51382,24.51382 0 0 0 11.126971,-6.003757 l 12.450879,44.778836 a 6.1577043,6.1577043 0 0 0 3.836253,4.13796 z M 240.38854,26.238951 H 97.0926 l 10.95456,-56.367619 a 48.067039,48.067039 0 0 0 9.18729,-28.362386 49.477154,49.477154 0 0 0 -1.42243,-11.379436 l 7.58013,-38.90438 v 0.0985 h 12.31541 v -12.31541 h -9.93237 l 2.39534,-12.31541 h 7.53703 v -12.8696 h 104.68098 z" />
    <path
       style="stroke-width:0.00571025"
       id="path16873"
       d="m 105.58407,142.40404 a 18.503902,18.503902 0 0 0 17.80808,13.52847 18.473113,18.473113 0 0 0 17.79577,-23.39926 18.503902,18.503902 0 0 0 -22.72193,-12.8696 18.473113,18.473113 0 0 0 -12.85728,22.74039 z m 12.43857,-8.005 a 6.1207581,6.1207581 0 0 1 3.69462,-2.90645 6.1577043,6.1577043 0 0 1 7.58014,4.3104 6.1577043,6.1577043 0 1 1 -11.29324,-1.38549 z" />
    <path
       style="stroke-width:0.00571025"
       id="path16875"
       d="m 17.134811,119.66365 a 18.473113,18.473113 0 1 0 -4.926164,36.27502 18.473113,18.473113 0 0 0 4.926164,-36.27502 z m 0.985233,19.44601 a 6.1577043,6.1577043 0 0 1 -7.573976,4.31042 v 0 a 6.1577043,6.1577043 0 0 1 1.650263,-12.09375 6.2931737,6.2931737 0 0 1 1.644108,0.2217 6.1577043,6.1577043 0 0 1 4.310392,7.58628 z" />
    <path
       style="stroke-width:0.00571025"
       id="path16877"
       d="m 166.49609,-70.81262 a 18.473113,18.473113 0 1 0 -18.47312,-18.473112 18.473113,18.473113 0 0 0 18.47312,18.473112 z m 0,-24.630816 a 6.1577043,6.1577043 0 1 1 -6.15771,6.157704 6.1577043,6.1577043 0 0 1 6.15771,-6.157704 z" />
    <path
       style="stroke-width:0.00571025"
       id="path16879"
       d="m 191.1269,-27.708689 a 18.473113,18.473113 0 1 0 18.47312,-18.473113 18.473113,18.473113 0 0 0 -18.47312,18.473113 z m 24.63082,0 a 6.1577043,6.1577043 0 1 1 -6.1577,-6.157705 6.1577043,6.1577043 0 0 1 6.1577,6.157705 z" />
    <path
       style="stroke-width:0.00571025"
       id="path16881"
       d="m 157.00706,-10.208493 a 6.1577043,6.1577043 0 0 0 8.50996,-1.847313 l 55.41933,-86.20786 a 6.1577043,6.1577043 0 1 0 -10.35726,-6.656474 l -55.41933,86.207857 a 6.1577043,6.1577043 0 0 0 1.8473,8.50379 z" />
    <rect
       style="stroke-width:0.00571025"
       id="rect16883"
       height="12.315409"
       width="12.315409"
       y="2.1623387"
       x="123.39215" />
    <rect
       style="stroke-width:0.00571025"
       id="rect16885"
       height="12.315409"
       width="12.315409"
       y="-22.468481"
       x="123.39215" />
    <rect
       style="stroke-width:0.00571025"
       id="rect16887"
       height="12.315409"
       width="12.315409"
       y="-47.0993"
       x="123.39215" />
    <rect
       style="stroke-width:0.00571025"
       id="rect16889"
       height="12.315409"
       width="12.315409"
       y="-71.730118"
       x="123.39215" />
    <rect
       style="stroke-width:0.00571025"
       id="rect16891"
       height="12.315409"
       width="12.315409"
       y="-96.360931"
       x="123.39215" />
  </g>
</svg>
