<svg height="511pt" viewBox="-29 1 511 511.99999" width="511pt" xmlns="http://www.w3.org/2000/svg"><path d="m444.234375 85.332031h-34.132813c-2.265624 0-4.433593.902344-6.035156 2.5l-28.097656 28.101563-17.070312-17.066406v-90.335938c0-4.710938-3.820313-8.53125-8.53125-8.53125h-34.132813c-2.265625 0-4.433594.898438-6.035156 2.5l-28.097657 28.101562-28.101562-28.101562c-1.601562-1.601562-3.769531-2.5-6.03125-2.5h-34.136719c-2.261719 0-4.433593.898438-6.03125 2.5l-28.101562 28.101562-28.097657-28.101562c-1.601562-1.601562-3.773437-2.5-6.035156-2.5h-34.132812c-2.261719 0-4.433594.898438-6.035156 2.5l-28.097657 28.101562-28.101562-28.101562c-1.597657-1.601562-3.769531-2.5-6.03125-2.5h-34.136719c-4.710938 0-8.53125 3.820312-8.53125 8.53125v409.601562c0 4.714844 3.820312 8.535157 8.53125 8.535157h34.136719c2.261719-.003907 4.429687-.902344 6.03125-2.5l28.101562-28.101563 17.066407 17.066406v90.335938c0 4.710938 3.820312 8.53125 8.53125 8.53125h34.132812c2.265625 0 4.433594-.898438 6.035156-2.5l28.097656-28.101562 28.101563 28.101562c1.601563 1.601562 3.769531 2.5 6.03125 2.5h34.136719c2.261718 0 4.429687-.898438 6.03125-2.5l28.101562-28.101562 28.097656 28.101562c1.601563 1.601562 3.769532 2.5 6.035157 2.5h34.132812c2.261719 0 4.433594-.898438 6.03125-2.5l28.101563-28.101562 28.097656 28.101562c1.601562 1.601562 3.773438 2.5 6.035156 2.5h34.132813c4.714843 0 8.53125-3.820312 8.53125-8.53125v-409.601562c.003906-4.714844-3.816407-8.535157-8.527344-8.535157zm-372.96875 292.636719-31.632813 31.632812h-22.066406v-392.535156h22.066406l31.632813 31.632813c3.332031 3.332031 8.734375 3.332031 12.066406 0l31.632813-31.632813h27.066406l31.632812 31.632813c3.332032 3.332031 8.734376 3.332031 12.066407 0l31.632812-31.632813h27.070313l31.632812 31.632813c3.332032 3.332031 8.734375 3.332031 12.066406 0l31.632813-31.632813h22.066406v392.535156h-22.066406l-31.632813-31.632812c-3.332031-3.332031-8.734374-3.332031-12.066406 0l-31.632812 31.632812h-27.066406l-31.632813-31.632812c-3.332031-3.332031-8.734375-3.332031-12.066406 0l-31.632813 31.632812h-27.070312l-31.632813-31.632812c-3.332031-3.332031-8.734375-3.332031-12.066406 0zm364.433594 116.964844h-22.066407l-31.632812-31.632813c-3.332031-3.332031-8.734375-3.332031-12.066406 0l-31.632813 31.632813h-27.066406l-31.632813-31.632813c-3.332031-3.332031-8.734374-3.332031-12.066406 0l-31.632812 31.632813h-27.070313l-31.632812-31.632813c-3.332031-3.332031-8.734375-3.332031-12.066407 0l-31.632812 31.632813h-22.066406v-68.265625h34.132812c2.261719 0 4.433594-.902344 6.03125-2.5l28.101563-28.101563 28.101562 28.101563c1.597657 1.597656 3.769531 2.5 6.03125 2.5h34.132813c2.261718 0 4.433594-.902344 6.035156-2.5l28.097656-28.101563 28.101563 28.101563c1.597656 1.597656 3.769531 2.5 6.03125 2.5h34.132812c4.714844 0 8.535157-3.820313 8.535157-8.535157v-295.132812l11.03125 11.03125c3.332031 3.332031 8.734374 3.332031 12.066406 0l31.636718-31.632812h22.066407zm0 0"/><path d="m111.433594 238.933594v-76.800782h25.597656v-17.066406h-68.265625v17.066406h25.601563v76.800782zm0 0"/><path d="m213.832031 238.933594v-51.199219c.003907-1.324219-.304687-2.632813-.894531-3.816406l-17.066406-34.132813c-1.445313-2.894531-4.40625-4.71875-7.636719-4.71875h-17.070313c-3.234374 0-6.191406 1.824219-7.636718 4.71875l-17.066406 34.132813c-.589844 1.183593-.898438 2.492187-.894532 3.816406v51.199219h17.066406v-25.601563h34.132813v25.601563zm-51.199219-42.667969v-6.519531l13.808594-27.613282h6.519532l13.804687 27.613282v6.519531zm0 0"/><path d="m290.632812 162.132812v-17.066406h-17.066406c-3.375 0-6.429687 1.984375-7.800781 5.070313l-9.265625 20.855469-9.265625-20.855469c-1.371094-3.082031-4.429687-5.070313-7.800781-5.070313h-17.066406v17.066406h11.519531l13.277343 29.867188-13.277343 29.867188h-11.519531v17.066406h17.066406c3.371094 0 6.429687-1.984375 7.800781-5.066406l9.265625-20.855469 9.265625 20.855469c1.371094 3.082031 4.429687 5.066406 7.800781 5.066406h17.066406v-17.066406h-11.519531l-13.277343-29.867188 13.277343-29.867188zm0 0"/><path d="m51.699219 256h256v17.066406h-256zm0 0"/><path d="m51.699219 110.933594h256v17.066406h-256zm0 0"/></svg>