<?xml version="1.0" encoding="UTF-8" standalone="no"?>
<svg
   xmlns:dc="http://purl.org/dc/elements/1.1/"
   xmlns:cc="http://creativecommons.org/ns#"
   xmlns:rdf="http://www.w3.org/1999/02/22-rdf-syntax-ns#"
   xmlns:svg="http://www.w3.org/2000/svg"
   xmlns="http://www.w3.org/2000/svg"
   xmlns:sodipodi="http://sodipodi.sourceforge.net/DTD/sodipodi-0.dtd"
   xmlns:inkscape="http://www.inkscape.org/namespaces/inkscape"
   id="svg"
   width="480"
   height="480"
   viewBox="0 0 480 480"
   version="1.1"
   sodipodi:docname="logo-short.svg"
   inkscape:version="0.92.4 (unknown)">
  <metadata
     id="metadata9">
    <rdf:RDF>
      <cc:Work
         rdf:about="">
        <dc:format>image/svg+xml</dc:format>
        <dc:type
           rdf:resource="http://purl.org/dc/dcmitype/StillImage" />
        <dc:title></dc:title>
      </cc:Work>
    </rdf:RDF>
  </metadata>
  <defs
     id="defs7" />
  <sodipodi:namedview
     pagecolor="#7c7c7c"
     bordercolor="#666666"
     borderopacity="1"
     objecttolerance="10"
     gridtolerance="10"
     guidetolerance="10"
     inkscape:pageopacity="0.78039216"
     inkscape:pageshadow="2"
     inkscape:window-width="1920"
     inkscape:window-height="1052"
     id="namedview5"
     showgrid="false"
     inkscape:zoom="0.9824186"
     inkscape:cx="217.20361"
     inkscape:cy="323.88137"
     inkscape:window-x="0"
     inkscape:window-y="28"
     inkscape:window-maximized="1"
     inkscape:current-layer="svg"
     inkscape:showpageshadow="false"
     showborder="true"
     inkscape:pagecheckerboard="true" />
  <path
     style="fill:#56e5ed;fill-opacity:1.0;fill-rule:evenodd;stroke:none"
     inkscape:connector-curvature="0"
     d="m 219.996,2.4230001 c -1.612,4.102 -15.644,34.7149999 -16.14,35.2109999 -0.245,0.245 -4.833,-0.655 -10.195,-1.999 -11.6,-2.91 -10.215,-4.358 -15.077,15.774 l -3.805,15.756 -3.982,-0.6 c -27.105,-4.087 -27.407,-4.001 -28.454,8.128 -0.406,4.701 -1.038,10.935 -1.405,13.854 l -0.667,5.308 H 90.135 40 V 241.65 389.445 l 106.425,45.506 c 63.709,27.241 107.809,45.503 109.875,45.501 3.373,-0.005 3.622,-0.391 11.037,-17.044 9.313,-20.919 7.509,-19.28 18.221,-16.545 4.952,1.264 9.5,2.299 10.106,2.299 0.606,0 2.902,-7.365 5.101,-16.368 2.2,-9.002 4.135,-16.502 4.299,-16.666 0.165,-0.164 7.02,0.439 15.235,1.339 8.214,0.901 15.179,1.393 15.478,1.095 0.423,-0.423 3.533,-25.109 3.641,-28.897 0.013,-0.461 22.649,-0.838 50.303,-0.838 H 440 V 241.047 93.267 L 331.493,46.913 C 271.814,21.418 222.543,0.39200007 222.003,0.18900007 c -0.541,-0.204 -1.444,0.802 -2.007,2.23400003 M 303.957,40.841 c 42.858,18.311 77.781,33.436 77.605,33.611 C 381.026,74.988 213.807,35.519 212.813,34.622 211.588,33.516 223.447,6.5430001 224.908,7.1110001 225.527,7.3510001 261.099,22.53 303.957,40.841 M 271.285,59.81 c 45.168,10.758 79.86,19.337 77.095,19.063 -45.975,-4.55 -165.97,-16.64 -166.11,-16.736 -0.21,-0.144 3.933,-18.342 4.672,-20.517 0.648,-1.909 -6.591,-3.47 84.343,18.19 m -32.402,22.312 c 45.782,5.865 83.994,10.846 84.916,11.068 0.922,0.223 -38.487,0.464 -87.575,0.535 l -89.25,0.13 0.752,-8.101 c 1.37,-14.751 1.641,-15.562 4.979,-14.888 1.616,0.326 40.396,5.392 86.178,11.256 M 433.296,241.341 V 382.123 H 240 46.704 V 241.341 100.559 H 240 433.296 V 241.341 M 144.731,205.617 c -14.359,3.616 -21.841,12.465 -20.688,24.468 1.113,11.58 7.994,16.016 32.158,20.735 15.891,3.104 20.112,4.854 20.112,8.343 0,8.915 -23.975,10.319 -40.908,2.395 -4.063,-1.902 -7.575,-3.457 -7.805,-3.457 -0.229,0 -1.934,3.005 -3.789,6.679 l -3.371,6.679 4.201,2.143 c 30.67,15.647 68.432,7.003 68.432,-15.665 0,-11.956 -7.198,-18.258 -24.676,-21.607 -26.288,-5.037 -30.04,-6.506 -28.289,-11.07 2.741,-7.142 25.338,-8.191 37.948,-1.762 2.337,1.191 4.349,2.048 4.471,1.904 3.485,-4.136 5.999,-12.368 4.193,-13.731 -7.051,-5.32 -31.121,-8.791 -41.989,-6.054 m 148.337,1.043 c -6.287,1.336 -19.548,6.778 -19.548,8.021 0,1.586 5.525,12.135 6.355,12.135 0.403,0 3.788,-1.22 7.523,-2.712 17.257,-6.889 34.168,-3.727 34.165,6.386 l -10e-4,3.588 h -12.569 c -30.648,0 -48.37,17.459 -37.393,36.839 7.753,13.69 32.579,16.038 45.562,4.309 l 4.402,-3.978 v 4.6 4.599 h 8.38 8.38 l -0.006,-26.536 c -0.007,-28.84 -0.612,-32.997 -5.633,-38.717 -6.727,-7.661 -25.102,-11.619 -39.617,-8.534 m 25.982,40.972 c 6.098,1.634 1.542,13.046 -6.824,17.096 -14.249,6.897 -29.487,2.103 -26.839,-8.445 1.673,-6.665 21.786,-11.834 33.663,-8.651 m 13.33,146.502 c -0.355,2.919 -0.982,8.21 -1.394,11.758 l -0.747,6.45 -3.499,-0.606 c -1.925,-0.334 -40.706,-5.375 -86.181,-11.202 -45.475,-5.827 -83.687,-10.776 -84.917,-10.999 -1.229,-0.222 38.18,-0.472 87.575,-0.556 l 89.808,-0.152 -0.645,5.307 m -115.844,18.207 c 43.324,4.322 79.327,8.047 80.007,8.277 1.151,0.389 -2.846,19.912 -4.393,21.459 -0.319,0.319 -37.7,-8.264 -83.069,-19.074 -45.369,-10.809 -79.975,-19.399 -76.902,-19.088 3.072,0.311 41.033,4.103 84.357,8.426 m -32.961,15.597 c 45.475,10.628 83.071,19.663 83.546,20.077 0.627,0.545 -9.021,24.923 -10.974,27.731 -0.422,0.607 -156.938,-66.383 -158.046,-67.645 -0.308,-0.35 0.195,-0.377 1.117,-0.061 0.922,0.316 38.883,9.27 84.357,19.898"
     id="path0" />
</svg>
