<svg height="480pt" viewBox="-8 0 480 480" width="480pt" xmlns="http://www.w3.org/2000/svg"><path d="m457.136719 320.078125-29.039063-4.148437c-2.238281-7.964844-5.421875-15.632813-9.488281-22.832032l17.597656-23.496094c2.386719-3.183593 2.074219-7.632812-.734375-10.449218l-22.632812-22.632813c-2.816406-2.808593-7.265625-3.121093-10.449219-.734375l-23.496094 17.597656c-7.199219-4.066406-14.867187-7.25-22.832031-9.488281l-4.152344-29.039062c-.566406-3.933594-3.9375-6.851563-7.910156-6.855469h-8v-168c-.027344-22.082031-17.917969-39.9726562-40-40h-256c-22.082031.0273438-39.9726562 17.917969-40 40v352c.0273438 22.082031 17.917969 39.972656 40 40h183.671875l19.480469 19.480469c2.816406 2.808593 7.265625 3.121093 10.449218.734375l23.496094-17.597656c7.199219 4.066406 14.867188 7.25 22.832032 9.488281l4.148437 29.039062c.570313 3.9375 3.945313 6.855469 7.921875 6.855469h32c3.980469 0 7.355469-2.925781 7.921875-6.863281l4.148437-29.039063c7.964844-2.238281 15.632813-5.421875 22.832032-9.488281l23.496094 17.597656c3.183593 2.386719 7.632812 2.074219 10.449218-.734375l22.632813-22.632812c2.808593-2.816406 3.121093-7.265625.734375-10.449219l-17.597656-23.496094c4.066406-7.199219 7.25-14.867187 9.488281-22.832031l29.039062-4.152344c3.933594-.566406 6.851563-3.9375 6.855469-7.910156v-32c0-3.980469-2.925781-7.355469-6.863281-7.921875zm-185.136719-304.078125v52.6875l-10.34375-10.34375c-3.125-3.121094-8.1875-3.121094-11.3125 0l-10.34375 10.34375v-52.6875zm-256 376v-352c0-13.253906 10.746094-24 24-24h184v72c0 3.234375 1.949219 6.152344 4.9375 7.390625s6.429688.550781 8.71875-1.734375l18.34375-18.34375 18.34375 18.34375c1.5 1.5 3.535156 2.34375 5.65625 2.34375 1.050781.003906 2.09375-.203125 3.0625-.609375 2.988281-1.238281 4.9375-4.15625 4.9375-7.390625v-72h8c13.253906 0 24 10.746094 24 24v168h-8c-3.980469 0-7.355469 2.925781-7.921875 6.863281l-4.148437 29.039063c-7.964844 2.238281-15.632813 5.421875-22.832032 9.488281l-23.496094-17.597656c-3.183593-2.386719-7.632812-2.074219-10.449218.734375l-22.632813 22.632812c-2.808593 2.816406-3.121093 7.265625-.734375 10.449219l17.597656 23.496094c-4.066406 7.199219-7.25 14.867187-9.488281 22.832031l-29.039062 4.152344c-3.933594.566406-6.851563 3.9375-6.855469 7.910156v32c0 3.980469 2.925781 7.355469 6.863281 7.921875l29.039063 4.148437c2.238281 7.964844 5.421875 15.632813 9.488281 22.832032l-15.789063 21.097656h-181.601562c-13.253906 0-24-10.746094-24-24zm432-38.9375-27.488281 3.921875c-3.296875.46875-5.957031 2.933594-6.679688 6.183594-2.203125 9.921875-6.128906 19.382812-11.601562 27.953125-1.777344 2.804687-1.636719 6.417968.355469 9.078125l16.671874 22.25-12.800781 12.796875-22.25-16.671875c-2.660156-1.988281-6.273437-2.128907-9.078125-.351563-8.570312 5.472656-18.03125 9.398438-27.953125 11.601563-3.25.722656-5.714843 3.382812-6.183593 6.679687l-3.929688 27.496094h-18.125l-3.921875-27.488281c-.46875-3.296875-2.933594-5.957031-6.183594-6.679688-9.921875-2.203125-19.382812-6.128906-27.953125-11.601562-2.804687-1.777344-6.417968-1.636719-9.078125.355469l-22.25 16.671874-12.796875-12.800781 16.671875-22.25c1.988281-2.660156 2.128907-6.273437.351563-9.078125-5.472656-8.570312-9.398438-18.03125-11.601563-27.953125-.722656-3.25-3.382812-5.714843-6.679687-6.183593l-27.496094-3.929688v-18.125l27.488281-3.921875c3.296875-.46875 5.957031-2.933594 6.679688-6.183594 2.203125-9.921875 6.128906-19.382812 11.601562-27.953125 1.777344-2.804687 1.636719-6.417968-.355469-9.078125l-16.671874-22.25 12.800781-12.796875 22.25 16.671875c2.660156 1.988281 6.273437 2.128907 9.078125.351563 8.570312-5.472656 18.03125-9.398438 27.953125-11.601563 3.25-.722656 5.714843-3.382812 6.183593-6.679687l3.929688-27.496094h18.125l3.921875 27.488281c.46875 3.296875 2.933594 5.957031 6.183594 6.679688 9.921875 2.203125 19.382812 6.128906 27.953125 11.601562 2.804687 1.777344 6.417968 1.636719 9.078125-.355469l22.25-16.671874 12.796875 12.800781-16.671875 22.25c-1.988281 2.660156-2.128907 6.273437-.351563 9.078125 5.472656 8.570312 9.398438 18.03125 11.601563 27.953125.722656 3.25 3.382812 5.714843 6.679687 6.183593l27.488282 3.921876zm0 0"/><path d="m328 280c-35.347656 0-64 28.652344-64 64s28.652344 64 64 64 64-28.652344 64-64c-.039062-35.328125-28.671875-63.960938-64-64zm0 112c-26.507812 0-48-21.492188-48-48s21.492188-48 48-48 48 21.492188 48 48c-.027344 26.5-21.5 47.972656-48 48zm0 0"/><path d="m48 48h32v16h-32zm0 0"/><path d="m96 48h80v16h-80zm0 0"/><path d="m48 80h128v16h-128zm0 0"/><path d="m48 144h224v16h-224zm0 0"/><path d="m48 192h176v16h-176zm0 0"/><path d="m240 192h32v16h-32zm0 0"/><path d="m48 240h160v16h-160zm0 0"/><path d="m48 304h64v16h-64zm0 0"/><path d="m48 336h64v16h-64zm0 0"/></svg>